<?xml version="1.0" encoding="utf-8" ?>
<svg xmlns="http://www.w3.org/2000/svg" xmlns:xlink="http://www.w3.org/1999/xlink" width="835" height="1001">
	<defs>
		<g id="group_0">
			<rect fill="#F9F9F9" width="835" height="1001"/>
			<rect fill="white" x="17" y="20" width="801" height="740"/>
			<text font-size="24" font-weight="600" font-family="'Arial', -apple-system, BlinkMacSystemFont, 'Segoe UI', Roboto, Helvetica, Arial, sans-serif, 'Apple Color Emoji', 'Segoe UI Emoji', 'Segoe UI Symbol'" x="53.484375" y="62">
					Mobility Startup Financing Evolution: Beyond Traditional Equity
			</text>
			<text fill="#666" font-size="12" font-family="'Arial', -apple-system, BlinkMacSystemFont, 'Segoe UI', Roboto, Helvetica, Arial, sans-serif, 'Apple Color Emoji', 'Segoe UI Emoji', 'Segoe UI Symbol'" x="233.875" y="831">
					Source: MIT Mobility Initiative Non-Dilutive Capital Framework (2025)
			</text>
			<path fill="white" d="M37.5 463L37.5 98Q37.5 97.8895 37.5054 97.7792Q37.5108 97.6689 37.5217 97.5589Q37.5325 97.449 37.5487 97.3397Q37.5649 97.2304 37.5865 97.1221Q37.608 97.0137 37.6349 96.9066Q37.6617 96.7994 37.6938 96.6937Q37.7258 96.588 37.763 96.484Q37.8003 96.38 37.8425 96.2779Q37.8848 96.1759 37.932 96.076Q37.9793 95.9761 38.0313 95.8787Q38.0834 95.7813 38.1402 95.6865Q38.197 95.5918 38.2584 95.4999Q38.3198 95.4081 38.3856 95.3194Q38.4514 95.2306 38.5215 95.1452Q38.5915 95.0598 38.6657 94.978Q38.7399 94.8961 38.818 94.818Q38.8961 94.7399 38.978 94.6657Q39.0598 94.5915 39.1452 94.5214Q39.2306 94.4514 39.3193 94.3856Q39.4081 94.3197 39.4999 94.2584Q39.5918 94.197 39.6865 94.1402Q39.7813 94.0834 39.8787 94.0313Q39.9761 93.9793 40.076 93.932Q40.1759 93.8848 40.2779 93.8425Q40.38 93.8003 40.484 93.763Q40.588 93.7258 40.6937 93.6938Q40.7994 93.6617 40.9066 93.6348Q41.0137 93.608 41.1221 93.5865Q41.2304 93.5649 41.3397 93.5487Q41.449 93.5325 41.5589 93.5217Q41.6689 93.5108 41.7792 93.5054Q41.8895 93.5 42 93.5L406 93.5Q406.11 93.5 406.221 93.5054Q406.331 93.5108 406.441 93.5217Q406.551 93.5325 406.66 93.5487Q406.77 93.5649 406.878 93.5865Q406.986 93.608 407.093 93.6348Q407.201 93.6617 407.306 93.6938Q407.412 93.7258 407.516 93.763Q407.62 93.8003 407.722 93.8425Q407.824 93.8848 407.924 93.932Q408.024 93.9793 408.121 94.0313Q408.219 94.0834 408.313 94.1402Q408.408 94.197 408.5 94.2584Q408.592 94.3197 408.681 94.3856Q408.769 94.4514 408.855 94.5215Q408.94 94.5915 409.022 94.6657Q409.104 94.7399 409.182 94.818Q409.26 94.8961 409.334 94.978Q409.408 95.0598 409.479 95.1452Q409.549 95.2306 409.614 95.3194Q409.68 95.4081 409.742 95.4999Q409.803 95.5918 409.86 95.6865Q409.917 95.7813 409.969 95.8787Q410.021 95.9761 410.068 96.076Q410.115 96.1759 410.157 96.2779Q410.2 96.38 410.237 96.484Q410.274 96.588 410.306 96.6937Q410.338 96.7994 410.365 96.9066Q410.392 97.0137 410.414 97.1221Q410.435 97.2304 410.451 97.3397Q410.467 97.449 410.478 97.5589Q410.489 97.6689 410.495 97.7792Q410.5 97.8895 410.5 98L410.5 463Q410.5 463.11 410.495 463.221Q410.489 463.331 410.478 463.441Q410.467 463.551 410.451 463.66Q410.435 463.77 410.414 463.878Q410.392 463.986 410.365 464.093Q410.338 464.201 410.306 464.306Q410.274 464.412 410.237 464.516Q410.2 464.62 410.157 464.722Q410.115 464.824 410.068 464.924Q410.021 465.024 409.969 465.121Q409.917 465.219 409.86 465.313Q409.803 465.408 409.742 465.5Q409.68 465.592 409.614 465.681Q409.549 465.769 409.479 465.855Q409.408 465.94 409.334 466.022Q409.26 466.104 409.182 466.182Q409.104 466.26 409.022 466.334Q408.94 466.408 408.855 466.478Q408.769 466.549 408.681 466.614Q408.592 466.68 408.5 466.742Q408.408 466.803 408.313 466.86Q408.219 466.917 408.121 466.969Q408.024 467.021 407.924 467.068Q407.824 467.115 407.722 467.157Q407.62 467.2 407.516 467.237Q407.412 467.274 407.306 467.306Q407.201 467.338 407.093 467.365Q406.986 467.392 406.878 467.413Q406.77 467.435 406.66 467.451Q406.551 467.467 406.441 467.478Q406.331 467.489 406.221 467.495Q406.11 467.5 406 467.5L42 467.5Q41.8895 467.5 41.7792 467.495Q41.6689 467.489 41.5589 467.478Q41.449 467.467 41.3397 467.451Q41.2304 467.435 41.1221 467.414Q41.0137 467.392 40.9066 467.365Q40.7994 467.338 40.6937 467.306Q40.588 467.274 40.484 467.237Q40.38 467.2 40.2779 467.157Q40.1759 467.115 40.076 467.068Q39.9761 467.021 39.8787 466.969Q39.7813 466.917 39.6865 466.86Q39.5918 466.803 39.4999 466.742Q39.4081 466.68 39.3193 466.614Q39.2306 466.549 39.1452 466.478Q39.0598 466.408 38.978 466.334Q38.8961 466.26 38.818 466.182Q38.7399 466.104 38.6657 466.022Q38.5915 465.94 38.5215 465.855Q38.4514 465.769 38.3856 465.681Q38.3198 465.592 38.2584 465.5Q38.197 465.408 38.1402 465.313Q38.0834 465.219 38.0313 465.121Q37.9793 465.024 37.932 464.924Q37.8848 464.824 37.8425 464.722Q37.8003 464.62 37.763 464.516Q37.7258 464.412 37.6938 464.306Q37.6617 464.201 37.6349 464.093Q37.608 463.986 37.5865 463.878Q37.5649 463.77 37.5487 463.66Q37.5325 463.551 37.5217 463.441Q37.5108 463.331 37.5054 463.221Q37.5 463.11 37.5 463Z"/>
			<path fill="none" stroke="#E0E0E0" stroke-width="1" stroke-miterlimit="4" d="M37.5 463L37.5 98Q37.5 97.8895 37.5054 97.7792Q37.5108 97.6689 37.5217 97.5589Q37.5325 97.449 37.5487 97.3397Q37.5649 97.2304 37.5865 97.1221Q37.608 97.0137 37.6349 96.9066Q37.6617 96.7994 37.6938 96.6937Q37.7258 96.588 37.763 96.484Q37.8003 96.38 37.8425 96.2779Q37.8848 96.1759 37.932 96.076Q37.9793 95.9761 38.0313 95.8787Q38.0834 95.7813 38.1402 95.6865Q38.197 95.5918 38.2584 95.4999Q38.3198 95.4081 38.3856 95.3194Q38.4514 95.2306 38.5215 95.1452Q38.5915 95.0598 38.6657 94.978Q38.7399 94.8961 38.818 94.818Q38.8961 94.7399 38.978 94.6657Q39.0598 94.5915 39.1452 94.5214Q39.2306 94.4514 39.3193 94.3856Q39.4081 94.3197 39.4999 94.2584Q39.5918 94.197 39.6865 94.1402Q39.7813 94.0834 39.8787 94.0313Q39.9761 93.9793 40.076 93.932Q40.1759 93.8848 40.2779 93.8425Q40.38 93.8003 40.484 93.763Q40.588 93.7258 40.6937 93.6938Q40.7994 93.6617 40.9066 93.6348Q41.0137 93.608 41.1221 93.5865Q41.2304 93.5649 41.3397 93.5487Q41.449 93.5325 41.5589 93.5217Q41.6689 93.5108 41.7792 93.5054Q41.8895 93.5 42 93.5L406 93.5Q406.11 93.5 406.221 93.5054Q406.331 93.5108 406.441 93.5217Q406.551 93.5325 406.66 93.5487Q406.77 93.5649 406.878 93.5865Q406.986 93.608 407.093 93.6348Q407.201 93.6617 407.306 93.6938Q407.412 93.7258 407.516 93.763Q407.62 93.8003 407.722 93.8425Q407.824 93.8848 407.924 93.932Q408.024 93.9793 408.121 94.0313Q408.219 94.0834 408.313 94.1402Q408.408 94.197 408.5 94.2584Q408.592 94.3197 408.681 94.3856Q408.769 94.4514 408.855 94.5215Q408.94 94.5915 409.022 94.6657Q409.104 94.7399 409.182 94.818Q409.26 94.8961 409.334 94.978Q409.408 95.0598 409.479 95.1452Q409.549 95.2306 409.614 95.3194Q409.68 95.4081 409.742 95.4999Q409.803 95.5918 409.86 95.6865Q409.917 95.7813 409.969 95.8787Q410.021 95.9761 410.068 96.076Q410.115 96.1759 410.157 96.2779Q410.2 96.38 410.237 96.484Q410.274 96.588 410.306 96.6937Q410.338 96.7994 410.365 96.9066Q410.392 97.0137 410.414 97.1221Q410.435 97.2304 410.451 97.3397Q410.467 97.449 410.478 97.5589Q410.489 97.6689 410.495 97.7792Q410.5 97.8895 410.5 98L410.5 463Q410.5 463.11 410.495 463.221Q410.489 463.331 410.478 463.441Q410.467 463.551 410.451 463.66Q410.435 463.77 410.414 463.878Q410.392 463.986 410.365 464.093Q410.338 464.201 410.306 464.306Q410.274 464.412 410.237 464.516Q410.2 464.62 410.157 464.722Q410.115 464.824 410.068 464.924Q410.021 465.024 409.969 465.121Q409.917 465.219 409.86 465.313Q409.803 465.408 409.742 465.5Q409.68 465.592 409.614 465.681Q409.549 465.769 409.479 465.855Q409.408 465.94 409.334 466.022Q409.26 466.104 409.182 466.182Q409.104 466.26 409.022 466.334Q408.94 466.408 408.855 466.478Q408.769 466.549 408.681 466.614Q408.592 466.68 408.5 466.742Q408.408 466.803 408.313 466.86Q408.219 466.917 408.121 466.969Q408.024 467.021 407.924 467.068Q407.824 467.115 407.722 467.157Q407.62 467.2 407.516 467.237Q407.412 467.274 407.306 467.306Q407.201 467.338 407.093 467.365Q406.986 467.392 406.878 467.413Q406.77 467.435 406.66 467.451Q406.551 467.467 406.441 467.478Q406.331 467.489 406.221 467.495Q406.11 467.5 406 467.5L42 467.5Q41.8895 467.5 41.7792 467.495Q41.6689 467.489 41.5589 467.478Q41.449 467.467 41.3397 467.451Q41.2304 467.435 41.1221 467.414Q41.0137 467.392 40.9066 467.365Q40.7994 467.338 40.6937 467.306Q40.588 467.274 40.484 467.237Q40.38 467.2 40.2779 467.157Q40.1759 467.115 40.076 467.068Q39.9761 467.021 39.8787 466.969Q39.7813 466.917 39.6865 466.86Q39.5918 466.803 39.4999 466.742Q39.4081 466.68 39.3193 466.614Q39.2306 466.549 39.1452 466.478Q39.0598 466.408 38.978 466.334Q38.8961 466.26 38.818 466.182Q38.7399 466.104 38.6657 466.022Q38.5915 465.94 38.5215 465.855Q38.4514 465.769 38.3856 465.681Q38.3198 465.592 38.2584 465.5Q38.197 465.408 38.1402 465.313Q38.0834 465.219 38.0313 465.121Q37.9793 465.024 37.932 464.924Q37.8848 464.824 37.8425 464.722Q37.8003 464.62 37.763 464.516Q37.7258 464.412 37.6938 464.306Q37.6617 464.201 37.6349 464.093Q37.608 463.986 37.5865 463.878Q37.5649 463.77 37.5487 463.66Q37.5325 463.551 37.5217 463.441Q37.5108 463.331 37.5054 463.221Q37.5 463.11 37.5 463Z"/>
			<text font-size="16" font-weight="600" font-family="'Arial', -apple-system, BlinkMacSystemFont, 'Segoe UI', Roboto, Helvetica, Arial, sans-serif, 'Apple Color Emoji', 'Segoe UI Emoji', 'Segoe UI Symbol'" x="76.875" y="123">
					US Mobility Startups Debt/Equity Ratio
			</text>
			<text font-size="16" font-weight="600" font-family="'Arial', -apple-system, BlinkMacSystemFont, 'Segoe UI', Roboto, Helvetica, Arial, sans-serif, 'Apple Color Emoji', 'Segoe UI Emoji', 'Segoe UI Symbol'" x="159.09375" y="141">
					Growth (2023-24)
			</text>
			<clipPath id="cl_3">
				<rect x="53" y="160" width="340" height="259"/>
			</clipPath>
			<g clip-path="url(#cl_3)">
				<path fill="none" stroke="#AAA" stroke-width="1" stroke-miterlimit="4" transform="translate(113 359)" d="M0.5 6L0.5 0.5L250.5 0.5L250.5 6"/>
			</g>
			<g clip-path="url(#cl_3)">
				<path fill="none" stroke="#AAA" stroke-width="1" stroke-miterlimit="4" transform="translate(162.242 359)" d="M0 0L0 6"/>
			</g>
			<g clip-path="url(#cl_3)">
				<text transform="translate(162.242 359)" font-size="12" font-family="'Arial', -apple-system, BlinkMacSystemFont, 'Segoe UI', Roboto, Helvetica, Arial, sans-serif, 'Apple Color Emoji', 'Segoe UI Emoji', 'Segoe UI Symbol'" x="-31.359375" y="17.515625">
						Seed Stage
				</text>
			</g>
			<g clip-path="url(#cl_3)">
				<path fill="none" stroke="#AAA" stroke-width="1" stroke-miterlimit="4" transform="translate(238 359)" d="M0 0L0 6"/>
			</g>
			<g clip-path="url(#cl_3)">
				<text transform="translate(238 359)" font-size="12" font-family="'Arial', -apple-system, BlinkMacSystemFont, 'Segoe UI', Roboto, Helvetica, Arial, sans-serif, 'Apple Color Emoji', 'Segoe UI Emoji', 'Segoe UI Symbol'" x="-22.34375" y="17.515625">
						Series A
				</text>
			</g>
			<g clip-path="url(#cl_3)">
				<path fill="none" stroke="#AAA" stroke-width="1" stroke-miterlimit="4" transform="translate(313.758 359)" d="M0 0L0 6"/>
			</g>
			<g clip-path="url(#cl_3)">
				<text transform="translate(313.758 359)" font-size="12" font-family="'Arial', -apple-system, BlinkMacSystemFont, 'Segoe UI', Roboto, Helvetica, Arial, sans-serif, 'Apple Color Emoji', 'Segoe UI Emoji', 'Segoe UI Symbol'" x="-22.671875" y="17.515625">
						Series B
				</text>
			</g>
			<g clip-path="url(#cl_3)">
				<path fill="none" stroke="#AAA" stroke-width="1" stroke-miterlimit="4" transform="translate(113 190)" d="M-6 169.5L0.5 169.5L0.5 0.5L-6 0.5"/>
			</g>
			<g clip-path="url(#cl_3)">
				<path fill="none" stroke="#AAA" stroke-width="1" stroke-miterlimit="4" transform="translate(113 359.5)" d="M0 0L-6 0"/>
			</g>
			<g clip-path="url(#cl_3)">
				<text transform="translate(113 359.5)" font-size="12" font-family="'Arial', -apple-system, BlinkMacSystemFont, 'Segoe UI', Roboto, Helvetica, Arial, sans-serif, 'Apple Color Emoji', 'Segoe UI Emoji', 'Segoe UI Symbol'" x="-21.6875" y="3.84375">
						0x
				</text>
			</g>
			<g clip-path="url(#cl_3)">
				<path fill="none" stroke="#AAA" stroke-width="1" stroke-miterlimit="4" transform="translate(113 331.333)" d="M0 0L-6 0"/>
			</g>
			<g clip-path="url(#cl_3)">
				<text transform="translate(113 331.333)" font-size="12" font-family="'Arial', -apple-system, BlinkMacSystemFont, 'Segoe UI', Roboto, Helvetica, Arial, sans-serif, 'Apple Color Emoji', 'Segoe UI Emoji', 'Segoe UI Symbol'" x="-21.6875" y="3.84375">
						1x
				</text>
			</g>
			<g clip-path="url(#cl_3)">
				<path fill="none" stroke="#AAA" stroke-width="1" stroke-miterlimit="4" transform="translate(113 303.167)" d="M0 0L-6 0"/>
			</g>
			<g clip-path="url(#cl_3)">
				<text transform="translate(113 303.167)" font-size="12" font-family="'Arial', -apple-system, BlinkMacSystemFont, 'Segoe UI', Roboto, Helvetica, Arial, sans-serif, 'Apple Color Emoji', 'Segoe UI Emoji', 'Segoe UI Symbol'" x="-21.6875" y="3.84375">
						2x
				</text>
			</g>
			<g clip-path="url(#cl_3)">
				<path fill="none" stroke="#AAA" stroke-width="1" stroke-miterlimit="4" transform="translate(113 275)" d="M0 0L-6 0"/>
			</g>
			<g clip-path="url(#cl_3)">
				<text transform="translate(113 275)" font-size="12" font-family="'Arial', -apple-system, BlinkMacSystemFont, 'Segoe UI', Roboto, Helvetica, Arial, sans-serif, 'Apple Color Emoji', 'Segoe UI Emoji', 'Segoe UI Symbol'" x="-21.6875" y="3.84375">
						3x
				</text>
			</g>
			<g clip-path="url(#cl_3)">
				<path fill="none" stroke="#AAA" stroke-width="1" stroke-miterlimit="4" transform="translate(113 246.833)" d="M0 0L-6 0"/>
			</g>
			<g clip-path="url(#cl_3)">
				<text transform="translate(113 246.833)" font-size="12" font-family="'Arial', -apple-system, BlinkMacSystemFont, 'Segoe UI', Roboto, Helvetica, Arial, sans-serif, 'Apple Color Emoji', 'Segoe UI Emoji', 'Segoe UI Symbol'" x="-21.6875" y="3.84375">
						4x
				</text>
			</g>
			<g clip-path="url(#cl_3)">
				<path fill="none" stroke="#AAA" stroke-width="1" stroke-miterlimit="4" transform="translate(113 218.667)" d="M0 0L-6 0"/>
			</g>
			<g clip-path="url(#cl_3)">
				<text transform="translate(113 218.667)" font-size="12" font-family="'Arial', -apple-system, BlinkMacSystemFont, 'Segoe UI', Roboto, Helvetica, Arial, sans-serif, 'Apple Color Emoji', 'Segoe UI Emoji', 'Segoe UI Symbol'" x="-21.6875" y="3.84375">
						5x
				</text>
			</g>
			<g clip-path="url(#cl_3)">
				<path fill="none" stroke="#AAA" stroke-width="1" stroke-miterlimit="4" transform="translate(113 190.5)" d="M0 0L-6 0"/>
			</g>
			<g clip-path="url(#cl_3)">
				<text transform="translate(113 190.5)" font-size="12" font-family="'Arial', -apple-system, BlinkMacSystemFont, 'Segoe UI', Roboto, Helvetica, Arial, sans-serif, 'Apple Color Emoji', 'Segoe UI Emoji', 'Segoe UI Symbol'" x="-21.6875" y="3.84375">
						6x
				</text>
			</g>
			<g clip-path="url(#cl_3)">
				<g fill-opacity="0.69803923" transform="translate(111 188)">
					<defs>
						<g id="group_1">
							<path fill="none" stroke="black" stroke-width="1" stroke-miterlimit="4" transform="translate(2 2)" d="M250 169.5L0.5 169.5L0.5 0.5L250 0.5"/>
							<path fill="none" stroke="#E0E0E0" stroke-width="1" stroke-miterlimit="4" stroke-opacity="0.7019608" transform="translate(2 171.5)" d="M0 0L250 0"/>
							<path fill="none" stroke="#E0E0E0" stroke-width="1" stroke-miterlimit="4" stroke-opacity="0.7019608" transform="translate(2 143.333)" d="M0 0L250 0"/>
							<path fill="none" stroke="#E0E0E0" stroke-width="1" stroke-miterlimit="4" stroke-opacity="0.7019608" transform="translate(2 115.167)" d="M0 0L250 0"/>
							<path fill="none" stroke="#E0E0E0" stroke-width="1" stroke-miterlimit="4" stroke-opacity="0.7019608" transform="translate(2 87)" d="M0 0L250 0"/>
							<path fill="none" stroke="#E0E0E0" stroke-width="1" stroke-miterlimit="4" stroke-opacity="0.7019608" transform="translate(2 58.8333)" d="M0 0L250 0"/>
							<path fill="none" stroke="#E0E0E0" stroke-width="1" stroke-miterlimit="4" stroke-opacity="0.7019608" transform="translate(2 30.6667)" d="M0 0L250 0"/>
							<path fill="none" stroke="#E0E0E0" stroke-width="1" stroke-miterlimit="4" stroke-opacity="0.7019608" transform="translate(2 2.5)" d="M0 0L250 0"/>
						</g>
					</defs>
					<use href="#group_1"/>
				</g>
			</g>
			<g clip-path="url(#cl_3)">
				<rect fill="#6B5B95" transform="translate(113 190)" x="22.727272" y="56.333332" width="53.030304" height="112.66667"/>
			</g>
			<g clip-path="url(#cl_3)">
				<rect fill="#6B5B95" transform="translate(113 190)" x="98.484848" y="28.166666" width="53.030304" height="140.83333"/>
			</g>
			<g clip-path="url(#cl_3)">
				<rect fill="#6B5B95" transform="translate(113 190)" x="174.24243" y="157.73334" width="53.030304" height="11.266663"/>
			</g>
			<g clip-path="url(#cl_3)">
				<text fill="#333" transform="translate(113 190)" font-size="18" font-weight="600" font-family="'Georgia', -apple-system, BlinkMacSystemFont, 'Segoe UI', Roboto, Helvetica, Arial, sans-serif, 'Apple Color Emoji', 'Segoe UI Emoji', 'Segoe UI Symbol'" x="38.09375" y="46.328125">
						4x
				</text>
			</g>
			<g clip-path="url(#cl_3)">
				<text fill="#333" transform="translate(113 190)" font-size="18" font-weight="600" font-family="'Georgia', -apple-system, BlinkMacSystemFont, 'Segoe UI', Roboto, Helvetica, Arial, sans-serif, 'Apple Color Emoji', 'Segoe UI Emoji', 'Segoe UI Symbol'" x="114.3125" y="18.15625">
						5x
				</text>
			</g>
			<g clip-path="url(#cl_3)">
				<text fill="#333" transform="translate(113 190)" font-size="18" font-weight="600" font-family="'Georgia', -apple-system, BlinkMacSystemFont, 'Segoe UI', Roboto, Helvetica, Arial, sans-serif, 'Apple Color Emoji', 'Segoe UI Emoji', 'Segoe UI Symbol'" x="180.34375" y="147.71875">
						0.4x
				</text>
			</g>
			<g clip-path="url(#cl_3)">
				<text transform="matrix(6.12323e-17 -1 1 6.12323e-17 113 190)" font-size="14" font-family="'Arial', -apple-system, BlinkMacSystemFont, 'Segoe UI', Roboto, Helvetica, Arial, sans-serif, 'Apple Color Emoji', 'Segoe UI Emoji', 'Segoe UI Symbol'" x="-138.96875" y="-45">
						Debt/Equity Ratio
				</text>
			</g>
			<path fill="white" fill-opacity="0.80000001" d="M53 454L53 438Q53 437.853 53.0144 437.706Q53.0289 437.559 53.0576 437.415Q53.0864 437.27 53.1292 437.129Q53.172 436.988 53.2284 436.852Q53.2848 436.716 53.3542 436.586Q53.4237 436.456 53.5056 436.333Q53.5875 436.211 53.681 436.097Q53.7745 435.983 53.8787 435.879Q53.9829 435.774 54.0968 435.681Q54.2107 435.587 54.3333 435.506Q54.4558 435.424 54.5858 435.354Q54.7158 435.285 54.8519 435.228Q54.9881 435.172 55.1291 435.129Q55.2702 435.086 55.4147 435.058Q55.5593 435.029 55.7059 435.014Q55.8526 435 56 435L298 435Q298.147 435 298.294 435.014Q298.441 435.029 298.585 435.058Q298.73 435.086 298.871 435.129Q299.012 435.172 299.148 435.228Q299.284 435.285 299.414 435.354Q299.544 435.424 299.667 435.506Q299.789 435.587 299.903 435.681Q300.017 435.774 300.121 435.879Q300.225 435.983 300.319 436.097Q300.413 436.211 300.494 436.333Q300.576 436.456 300.646 436.586Q300.715 436.716 300.772 436.852Q300.828 436.988 300.871 437.129Q300.914 437.27 300.942 437.415Q300.971 437.559 300.986 437.706Q301 437.853 301 438L301 454Q301 454.147 300.986 454.294Q300.971 454.441 300.942 454.585Q300.914 454.73 300.871 454.871Q300.828 455.012 300.772 455.148Q300.715 455.284 300.646 455.414Q300.576 455.544 300.494 455.667Q300.413 455.789 300.319 455.903Q300.225 456.017 300.121 456.121Q300.017 456.226 299.903 456.319Q299.789 456.413 299.667 456.494Q299.544 456.576 299.414 456.646Q299.284 456.715 299.148 456.772Q299.012 456.828 298.871 456.871Q298.73 456.914 298.585 456.942Q298.441 456.971 298.294 456.986Q298.147 457 298 457L56 457Q55.8526 457 55.7059 456.986Q55.5593 456.971 55.4147 456.942Q55.2702 456.914 55.1291 456.871Q54.9881 456.828 54.8519 456.772Q54.7158 456.715 54.5858 456.646Q54.4558 456.576 54.3333 456.494Q54.2107 456.413 54.0968 456.319Q53.9829 456.226 53.8787 456.121Q53.7745 456.017 53.681 455.903Q53.5875 455.789 53.5056 455.667Q53.4237 455.544 53.3542 455.414Q53.2848 455.284 53.2284 455.148Q53.172 455.012 53.1292 454.871Q53.0864 454.73 53.0576 454.585Q53.0289 454.441 53.0144 454.294Q53 454.147 53 454Z"/>
			<ellipse fill="#666" cx="66" cy="446" rx="8" ry="8"/>
			<text fill="white" font-size="12" font-style="italic" font-weight="600" font-family="'Arial', -apple-system, BlinkMacSystemFont, 'Segoe UI', Roboto, Helvetica, Arial, sans-serif, 'Apple Color Emoji', 'Segoe UI Emoji', 'Segoe UI Symbol'" x="64.328125" y="450">
					i
			</text>
			<text fill="#666" font-size="12" font-style="italic" font-family="'Arial', -apple-system, BlinkMacSystemFont, 'Segoe UI', Roboto, Helvetica, Arial, sans-serif, 'Apple Color Emoji', 'Segoe UI Emoji', 'Segoe UI Symbol'" x="79" y="450">
					Equity drought driving alternative funding
			</text>
			<path fill="white" d="M426.5 463L426.5 98Q426.5 97.8895 426.505 97.7792Q426.511 97.6689 426.522 97.5589Q426.533 97.449 426.549 97.3397Q426.565 97.2304 426.586 97.1221Q426.608 97.0137 426.635 96.9066Q426.662 96.7994 426.694 96.6937Q426.726 96.588 426.763 96.484Q426.8 96.38 426.842 96.2779Q426.885 96.1759 426.932 96.076Q426.979 95.9761 427.031 95.8787Q427.083 95.7813 427.14 95.6865Q427.197 95.5918 427.258 95.4999Q427.32 95.4081 427.386 95.3194Q427.451 95.2306 427.521 95.1452Q427.592 95.0598 427.666 94.978Q427.74 94.8961 427.818 94.818Q427.896 94.7399 427.978 94.6657Q428.06 94.5915 428.145 94.5214Q428.231 94.4514 428.319 94.3856Q428.408 94.3197 428.5 94.2584Q428.592 94.197 428.686 94.1402Q428.781 94.0834 428.879 94.0313Q428.976 93.9793 429.076 93.932Q429.176 93.8848 429.278 93.8425Q429.38 93.8003 429.484 93.763Q429.588 93.7258 429.694 93.6938Q429.799 93.6617 429.907 93.6348Q430.014 93.608 430.122 93.5865Q430.23 93.5649 430.34 93.5487Q430.449 93.5325 430.559 93.5217Q430.669 93.5108 430.779 93.5054Q430.89 93.5 431 93.5L793 93.5Q793.11 93.5 793.221 93.5054Q793.331 93.5108 793.441 93.5217Q793.551 93.5325 793.66 93.5487Q793.77 93.5649 793.878 93.5865Q793.986 93.608 794.093 93.6348Q794.201 93.6617 794.306 93.6938Q794.412 93.7258 794.516 93.763Q794.62 93.8003 794.722 93.8425Q794.824 93.8848 794.924 93.932Q795.024 93.9793 795.121 94.0313Q795.219 94.0834 795.313 94.1402Q795.408 94.197 795.5 94.2584Q795.592 94.3197 795.681 94.3856Q795.769 94.4514 795.855 94.5215Q795.94 94.5915 796.022 94.6657Q796.104 94.7399 796.182 94.818Q796.26 94.8961 796.334 94.978Q796.408 95.0598 796.479 95.1452Q796.549 95.2306 796.614 95.3194Q796.68 95.4081 796.741 95.4999Q796.803 95.5918 796.86 95.6865Q796.916 95.7813 796.969 95.8787Q797.021 95.9761 797.068 96.076Q797.115 96.1759 797.157 96.2779Q797.2 96.38 797.237 96.484Q797.274 96.588 797.306 96.6937Q797.338 96.7994 797.365 96.9066Q797.392 97.0137 797.413 97.1221Q797.435 97.2304 797.451 97.3397Q797.467 97.449 797.478 97.5589Q797.489 97.6689 797.495 97.7792Q797.5 97.8895 797.5 98L797.5 463Q797.5 463.11 797.495 463.221Q797.489 463.331 797.478 463.441Q797.467 463.551 797.451 463.66Q797.435 463.77 797.413 463.878Q797.392 463.986 797.365 464.093Q797.338 464.201 797.306 464.306Q797.274 464.412 797.237 464.516Q797.2 464.62 797.157 464.722Q797.115 464.824 797.068 464.924Q797.021 465.024 796.969 465.121Q796.917 465.219 796.86 465.313Q796.803 465.408 796.742 465.5Q796.68 465.592 796.614 465.681Q796.549 465.769 796.479 465.855Q796.408 465.94 796.334 466.022Q796.26 466.104 796.182 466.182Q796.104 466.26 796.022 466.334Q795.94 466.408 795.855 466.478Q795.769 466.549 795.681 466.614Q795.592 466.68 795.5 466.742Q795.408 466.803 795.313 466.86Q795.219 466.917 795.121 466.969Q795.024 467.021 794.924 467.068Q794.824 467.115 794.722 467.157Q794.62 467.2 794.516 467.237Q794.412 467.274 794.306 467.306Q794.201 467.338 794.093 467.365Q793.986 467.392 793.878 467.413Q793.77 467.435 793.66 467.451Q793.551 467.467 793.441 467.478Q793.331 467.489 793.221 467.495Q793.11 467.5 793 467.5L431 467.5Q430.89 467.5 430.779 467.495Q430.669 467.489 430.559 467.478Q430.449 467.467 430.34 467.451Q430.23 467.435 430.122 467.414Q430.014 467.392 429.906 467.365Q429.799 467.338 429.694 467.306Q429.588 467.274 429.484 467.237Q429.38 467.2 429.278 467.157Q429.176 467.115 429.076 467.068Q428.976 467.021 428.879 466.969Q428.781 466.917 428.686 466.86Q428.592 466.803 428.5 466.742Q428.408 466.68 428.319 466.614Q428.231 466.549 428.145 466.478Q428.06 466.408 427.978 466.334Q427.896 466.26 427.818 466.182Q427.74 466.104 427.666 466.022Q427.591 465.94 427.521 465.855Q427.451 465.769 427.385 465.681Q427.32 465.592 427.258 465.5Q427.197 465.408 427.14 465.313Q427.083 465.219 427.031 465.121Q426.979 465.024 426.932 464.924Q426.885 464.824 426.842 464.722Q426.8 464.62 426.763 464.516Q426.726 464.412 426.694 464.306Q426.662 464.201 426.635 464.093Q426.608 463.986 426.586 463.878Q426.565 463.77 426.549 463.66Q426.533 463.551 426.522 463.441Q426.511 463.331 426.505 463.221Q426.5 463.11 426.5 463Z"/>
			<path fill="none" stroke="#E0E0E0" stroke-width="1" stroke-miterlimit="4" d="M426.5 463L426.5 98Q426.5 97.8895 426.505 97.7792Q426.511 97.6689 426.522 97.5589Q426.533 97.449 426.549 97.3397Q426.565 97.2304 426.586 97.1221Q426.608 97.0137 426.635 96.9066Q426.662 96.7994 426.694 96.6937Q426.726 96.588 426.763 96.484Q426.8 96.38 426.842 96.2779Q426.885 96.1759 426.932 96.076Q426.979 95.9761 427.031 95.8787Q427.083 95.7813 427.14 95.6865Q427.197 95.5918 427.258 95.4999Q427.32 95.4081 427.386 95.3194Q427.451 95.2306 427.521 95.1452Q427.592 95.0598 427.666 94.978Q427.74 94.8961 427.818 94.818Q427.896 94.7399 427.978 94.6657Q428.06 94.5915 428.145 94.5214Q428.231 94.4514 428.319 94.3856Q428.408 94.3197 428.5 94.2584Q428.592 94.197 428.686 94.1402Q428.781 94.0834 428.879 94.0313Q428.976 93.9793 429.076 93.932Q429.176 93.8848 429.278 93.8425Q429.38 93.8003 429.484 93.763Q429.588 93.7258 429.694 93.6938Q429.799 93.6617 429.907 93.6348Q430.014 93.608 430.122 93.5865Q430.23 93.5649 430.34 93.5487Q430.449 93.5325 430.559 93.5217Q430.669 93.5108 430.779 93.5054Q430.89 93.5 431 93.5L793 93.5Q793.11 93.5 793.221 93.5054Q793.331 93.5108 793.441 93.5217Q793.551 93.5325 793.66 93.5487Q793.77 93.5649 793.878 93.5865Q793.986 93.608 794.093 93.6348Q794.201 93.6617 794.306 93.6938Q794.412 93.7258 794.516 93.763Q794.62 93.8003 794.722 93.8425Q794.824 93.8848 794.924 93.932Q795.024 93.9793 795.121 94.0313Q795.219 94.0834 795.313 94.1402Q795.408 94.197 795.5 94.2584Q795.592 94.3197 795.681 94.3856Q795.769 94.4514 795.855 94.5215Q795.94 94.5915 796.022 94.6657Q796.104 94.7399 796.182 94.818Q796.26 94.8961 796.334 94.978Q796.408 95.0598 796.479 95.1452Q796.549 95.2306 796.614 95.3194Q796.68 95.4081 796.741 95.4999Q796.803 95.5918 796.86 95.6865Q796.916 95.7813 796.969 95.8787Q797.021 95.9761 797.068 96.076Q797.115 96.1759 797.157 96.2779Q797.2 96.38 797.237 96.484Q797.274 96.588 797.306 96.6937Q797.338 96.7994 797.365 96.9066Q797.392 97.0137 797.413 97.1221Q797.435 97.2304 797.451 97.3397Q797.467 97.449 797.478 97.5589Q797.489 97.6689 797.495 97.7792Q797.5 97.8895 797.5 98L797.5 463Q797.5 463.11 797.495 463.221Q797.489 463.331 797.478 463.441Q797.467 463.551 797.451 463.66Q797.435 463.77 797.413 463.878Q797.392 463.986 797.365 464.093Q797.338 464.201 797.306 464.306Q797.274 464.412 797.237 464.516Q797.2 464.62 797.157 464.722Q797.115 464.824 797.068 464.924Q797.021 465.024 796.969 465.121Q796.917 465.219 796.86 465.313Q796.803 465.408 796.742 465.5Q796.68 465.592 796.614 465.681Q796.549 465.769 796.479 465.855Q796.408 465.94 796.334 466.022Q796.26 466.104 796.182 466.182Q796.104 466.26 796.022 466.334Q795.94 466.408 795.855 466.478Q795.769 466.549 795.681 466.614Q795.592 466.68 795.5 466.742Q795.408 466.803 795.313 466.86Q795.219 466.917 795.121 466.969Q795.024 467.021 794.924 467.068Q794.824 467.115 794.722 467.157Q794.62 467.2 794.516 467.237Q794.412 467.274 794.306 467.306Q794.201 467.338 794.093 467.365Q793.986 467.392 793.878 467.413Q793.77 467.435 793.66 467.451Q793.551 467.467 793.441 467.478Q793.331 467.489 793.221 467.495Q793.11 467.5 793 467.5L431 467.5Q430.89 467.5 430.779 467.495Q430.669 467.489 430.559 467.478Q430.449 467.467 430.34 467.451Q430.23 467.435 430.122 467.414Q430.014 467.392 429.906 467.365Q429.799 467.338 429.694 467.306Q429.588 467.274 429.484 467.237Q429.38 467.2 429.278 467.157Q429.176 467.115 429.076 467.068Q428.976 467.021 428.879 466.969Q428.781 466.917 428.686 466.86Q428.592 466.803 428.5 466.742Q428.408 466.68 428.319 466.614Q428.231 466.549 428.145 466.478Q428.06 466.408 427.978 466.334Q427.896 466.26 427.818 466.182Q427.74 466.104 427.666 466.022Q427.591 465.94 427.521 465.855Q427.451 465.769 427.385 465.681Q427.32 465.592 427.258 465.5Q427.197 465.408 427.14 465.313Q427.083 465.219 427.031 465.121Q426.979 465.024 426.932 464.924Q426.885 464.824 426.842 464.722Q426.8 464.62 426.763 464.516Q426.726 464.412 426.694 464.306Q426.662 464.201 426.635 464.093Q426.608 463.986 426.586 463.878Q426.565 463.77 426.549 463.66Q426.533 463.551 426.522 463.441Q426.511 463.331 426.505 463.221Q426.5 463.11 426.5 463Z"/>
			<text font-size="16" font-weight="600" font-family="'Arial', -apple-system, BlinkMacSystemFont, 'Segoe UI', Roboto, Helvetica, Arial, sans-serif, 'Apple Color Emoji', 'Segoe UI Emoji', 'Segoe UI Symbol'" x="460.25" y="123">
					Comprehensive Capital Stack Approach
			</text>
			<clipPath id="cl_4">
				<rect x="442" y="142" width="338" height="306"/>
			</clipPath>
			<g clip-path="url(#cl_4)">
				<rect fill="#1F355E" transform="translate(502 172)" x="4" y="140.39999" width="100" height="75.600006"/>
			</g>
			<g clip-path="url(#cl_4)">
				<rect fill="none" stroke="white" stroke-width="1" stroke-miterlimit="4" transform="translate(502 172)" x="4" y="140.39999" width="100" height="75.600006"/>
			</g>
			<g clip-path="url(#cl_4)">
				<rect fill="#6B5B95" transform="translate(502 172)" x="4" y="86.400002" width="100" height="53.999992"/>
			</g>
			<g clip-path="url(#cl_4)">
				<rect fill="none" stroke="white" stroke-width="1" stroke-miterlimit="4" transform="translate(502 172)" x="4" y="86.400002" width="100" height="53.999992"/>
			</g>
			<g clip-path="url(#cl_4)">
				<rect fill="#2A7F62" transform="translate(502 172)" x="4" y="43.200001" width="100" height="43.200001"/>
			</g>
			<g clip-path="url(#cl_4)">
				<rect fill="none" stroke="white" stroke-width="1" stroke-miterlimit="4" transform="translate(502 172)" x="4" y="43.200001" width="100" height="43.200001"/>
			</g>
			<g clip-path="url(#cl_4)">
				<rect fill="#F28C28" transform="translate(502 172)" x="4" y="21.6" width="100" height="21.6"/>
			</g>
			<g clip-path="url(#cl_4)">
				<rect fill="none" stroke="white" stroke-width="1" stroke-miterlimit="4" transform="translate(502 172)" x="4" y="21.6" width="100" height="21.6"/>
			</g>
			<g clip-path="url(#cl_4)">
				<rect fill="#545B64" transform="translate(502 172)" x="4" width="100" height="21.6"/>
			</g>
			<g clip-path="url(#cl_4)">
				<rect fill="none" stroke="white" stroke-width="1" stroke-miterlimit="4" transform="translate(502 172)" x="4" width="100" height="21.6"/>
			</g>
			<g clip-path="url(#cl_4)">
				<path fill="none" stroke="#AAA" stroke-width="1" stroke-miterlimit="4" transform="translate(502 172)" d="M-6 216.5L0.5 216.5L0.5 0.5L-6 0.5"/>
			</g>
			<g clip-path="url(#cl_4)">
				<path fill="none" stroke="#AAA" stroke-width="1" stroke-miterlimit="4" transform="translate(502 388.5)" d="M0 0L-6 0"/>
			</g>
			<g clip-path="url(#cl_4)">
				<text transform="translate(502 388.5)" font-size="12" font-family="'Arial', -apple-system, BlinkMacSystemFont, 'Segoe UI', Roboto, Helvetica, Arial, sans-serif, 'Apple Color Emoji', 'Segoe UI Emoji', 'Segoe UI Symbol'" x="-26.34375" y="3.84375">
						0%
				</text>
			</g>
			<g clip-path="url(#cl_4)">
				<path fill="none" stroke="#AAA" stroke-width="1" stroke-miterlimit="4" transform="translate(502 345.3)" d="M0 0L-6 0"/>
			</g>
			<g clip-path="url(#cl_4)">
				<text transform="translate(502 345.3)" font-size="12" font-family="'Arial', -apple-system, BlinkMacSystemFont, 'Segoe UI', Roboto, Helvetica, Arial, sans-serif, 'Apple Color Emoji', 'Segoe UI Emoji', 'Segoe UI Symbol'" x="-33.03125" y="3.84375">
						20%
				</text>
			</g>
			<g clip-path="url(#cl_4)">
				<path fill="none" stroke="#AAA" stroke-width="1" stroke-miterlimit="4" transform="translate(502 302.1)" d="M0 0L-6 0"/>
			</g>
			<g clip-path="url(#cl_4)">
				<text transform="translate(502 302.1)" font-size="12" font-family="'Arial', -apple-system, BlinkMacSystemFont, 'Segoe UI', Roboto, Helvetica, Arial, sans-serif, 'Apple Color Emoji', 'Segoe UI Emoji', 'Segoe UI Symbol'" x="-33.03125" y="3.84375">
						40%
				</text>
			</g>
			<g clip-path="url(#cl_4)">
				<path fill="none" stroke="#AAA" stroke-width="1" stroke-miterlimit="4" transform="translate(502 258.9)" d="M0 0L-6 0"/>
			</g>
			<g clip-path="url(#cl_4)">
				<text transform="translate(502 258.9)" font-size="12" font-family="'Arial', -apple-system, BlinkMacSystemFont, 'Segoe UI', Roboto, Helvetica, Arial, sans-serif, 'Apple Color Emoji', 'Segoe UI Emoji', 'Segoe UI Symbol'" x="-33.03125" y="3.84375">
						60%
				</text>
			</g>
			<g clip-path="url(#cl_4)">
				<path fill="none" stroke="#AAA" stroke-width="1" stroke-miterlimit="4" transform="translate(502 215.7)" d="M0 0L-6 0"/>
			</g>
			<g clip-path="url(#cl_4)">
				<text transform="translate(502 215.7)" font-size="12" font-family="'Arial', -apple-system, BlinkMacSystemFont, 'Segoe UI', Roboto, Helvetica, Arial, sans-serif, 'Apple Color Emoji', 'Segoe UI Emoji', 'Segoe UI Symbol'" x="-33.03125" y="3.84375">
						80%
				</text>
			</g>
			<g clip-path="url(#cl_4)">
				<path fill="none" stroke="#AAA" stroke-width="1" stroke-miterlimit="4" transform="translate(502 172.5)" d="M0 0L-6 0"/>
			</g>
			<g clip-path="url(#cl_4)">
				<text transform="translate(502 172.5)" font-size="12" font-family="'Arial', -apple-system, BlinkMacSystemFont, 'Segoe UI', Roboto, Helvetica, Arial, sans-serif, 'Apple Color Emoji', 'Segoe UI Emoji', 'Segoe UI Symbol'" x="-39.703125" y="3.84375">
						100%
				</text>
			</g>
			<g clip-path="url(#cl_4)">
				<g fill-opacity="0.69803923" transform="translate(500 170)">
					<defs>
						<g id="group_2">
							<path fill="none" stroke="black" stroke-width="1" stroke-miterlimit="4" transform="translate(2 2)" d="M108 216.5L0.5 216.5L0.5 0.5L108 0.5"/>
							<path fill="none" stroke="#E0E0E0" stroke-width="1" stroke-miterlimit="4" stroke-opacity="0.7019608" transform="translate(2 218.5)" d="M0 0L108 0"/>
							<path fill="none" stroke="#E0E0E0" stroke-width="1" stroke-miterlimit="4" stroke-opacity="0.7019608" transform="translate(2 175.3)" d="M0 0L108 0"/>
							<path fill="none" stroke="#E0E0E0" stroke-width="1" stroke-miterlimit="4" stroke-opacity="0.7019608" transform="translate(2 132.1)" d="M0 0L108 0"/>
							<path fill="none" stroke="#E0E0E0" stroke-width="1" stroke-miterlimit="4" stroke-opacity="0.7019608" transform="translate(2 88.9)" d="M0 0L108 0"/>
							<path fill="none" stroke="#E0E0E0" stroke-width="1" stroke-miterlimit="4" stroke-opacity="0.7019608" transform="translate(2 45.7)" d="M0 0L108 0"/>
							<path fill="none" stroke="#E0E0E0" stroke-width="1" stroke-miterlimit="4" stroke-opacity="0.7019608" transform="translate(2 2.5)" d="M0 0L108 0"/>
						</g>
					</defs>
					<use href="#group_2"/>
				</g>
			</g>
			<g clip-path="url(#cl_4)">
				<rect fill="#1F355E" transform="translate(626 182)" width="15" height="15"/>
			</g>
			<g clip-path="url(#cl_4)">
				<text transform="translate(626 182)" font-size="12" font-family="'Arial', -apple-system, BlinkMacSystemFont, 'Segoe UI', Roboto, Helvetica, Arial, sans-serif, 'Apple Color Emoji', 'Segoe UI Emoji', 'Segoe UI Symbol'" x="25" y="7">
						Equity
				</text>
			</g>
			<g clip-path="url(#cl_4)">
				<text transform="translate(626 182)" font-size="12" font-weight="600" font-family="'Arial', -apple-system, BlinkMacSystemFont, 'Segoe UI', Roboto, Helvetica, Arial, sans-serif, 'Apple Color Emoji', 'Segoe UI Emoji', 'Segoe UI Symbol'" x="25" y="22">
						(35%)
				</text>
			</g>
			<g clip-path="url(#cl_4)">
				<rect fill="#6B5B95" transform="translate(626 212)" width="15" height="15"/>
			</g>
			<g clip-path="url(#cl_4)">
				<text transform="translate(626 212)" font-size="12" font-family="'Arial', -apple-system, BlinkMacSystemFont, 'Segoe UI', Roboto, Helvetica, Arial, sans-serif, 'Apple Color Emoji', 'Segoe UI Emoji', 'Segoe UI Symbol'" x="25" y="7">
						Venture Debt
				</text>
			</g>
			<g clip-path="url(#cl_4)">
				<text transform="translate(626 212)" font-size="12" font-weight="600" font-family="'Arial', -apple-system, BlinkMacSystemFont, 'Segoe UI', Roboto, Helvetica, Arial, sans-serif, 'Apple Color Emoji', 'Segoe UI Emoji', 'Segoe UI Symbol'" x="25" y="22">
						(25%)
				</text>
			</g>
			<g clip-path="url(#cl_4)">
				<rect fill="#2A7F62" transform="translate(626 242)" width="15" height="15"/>
			</g>
			<g clip-path="url(#cl_4)">
				<text transform="translate(626 242)" font-size="12" font-family="'Arial', -apple-system, BlinkMacSystemFont, 'Segoe UI', Roboto, Helvetica, Arial, sans-serif, 'Apple Color Emoji', 'Segoe UI Emoji', 'Segoe UI Symbol'" x="25" y="7">
						Project Finance
				</text>
			</g>
			<g clip-path="url(#cl_4)">
				<text transform="translate(626 242)" font-size="12" font-weight="600" font-family="'Arial', -apple-system, BlinkMacSystemFont, 'Segoe UI', Roboto, Helvetica, Arial, sans-serif, 'Apple Color Emoji', 'Segoe UI Emoji', 'Segoe UI Symbol'" x="25" y="22">
						(20%)
				</text>
			</g>
			<g clip-path="url(#cl_4)">
				<rect fill="#F28C28" transform="translate(626 272)" width="15" height="15"/>
			</g>
			<g clip-path="url(#cl_4)">
				<text transform="translate(626 272)" font-size="12" font-family="'Arial', -apple-system, BlinkMacSystemFont, 'Segoe UI', Roboto, Helvetica, Arial, sans-serif, 'Apple Color Emoji', 'Segoe UI Emoji', 'Segoe UI Symbol'" x="25" y="7">
						Grants
				</text>
			</g>
			<g clip-path="url(#cl_4)">
				<text transform="translate(626 272)" font-size="12" font-weight="600" font-family="'Arial', -apple-system, BlinkMacSystemFont, 'Segoe UI', Roboto, Helvetica, Arial, sans-serif, 'Apple Color Emoji', 'Segoe UI Emoji', 'Segoe UI Symbol'" x="25" y="22">
						(10%)
				</text>
			</g>
			<g clip-path="url(#cl_4)">
				<rect fill="#545B64" transform="translate(626 302)" width="15" height="15"/>
			</g>
			<g clip-path="url(#cl_4)">
				<text transform="translate(626 302)" font-size="12" font-family="'Arial', -apple-system, BlinkMacSystemFont, 'Segoe UI', Roboto, Helvetica, Arial, sans-serif, 'Apple Color Emoji', 'Segoe UI Emoji', 'Segoe UI Symbol'" x="25" y="7">
						Revenue
				</text>
			</g>
			<g clip-path="url(#cl_4)">
				<text transform="translate(626 302)" font-size="12" font-weight="600" font-family="'Arial', -apple-system, BlinkMacSystemFont, 'Segoe UI', Roboto, Helvetica, Arial, sans-serif, 'Apple Color Emoji', 'Segoe UI Emoji', 'Segoe UI Symbol'" x="25" y="22">
						(10%)
				</text>
			</g>
			<g clip-path="url(#cl_4)">
				<text fill="white" transform="translate(502 172)" font-size="16" font-weight="600" font-family="'Georgia', -apple-system, BlinkMacSystemFont, 'Segoe UI', Roboto, Helvetica, Arial, sans-serif, 'Apple Color Emoji', 'Segoe UI Emoji', 'Segoe UI Symbol'" x="37.171875" y="184.1875">
						35%
				</text>
			</g>
			<g clip-path="url(#cl_4)">
				<text fill="white" transform="translate(502 172)" font-size="16" font-weight="600" font-family="'Georgia', -apple-system, BlinkMacSystemFont, 'Segoe UI', Roboto, Helvetica, Arial, sans-serif, 'Apple Color Emoji', 'Segoe UI Emoji', 'Segoe UI Symbol'" x="37.15625" y="119.39062">
						25%
				</text>
			</g>
			<g clip-path="url(#cl_4)">
				<text fill="white" transform="translate(502 172)" font-size="16" font-weight="600" font-family="'Georgia', -apple-system, BlinkMacSystemFont, 'Segoe UI', Roboto, Helvetica, Arial, sans-serif, 'Apple Color Emoji', 'Segoe UI Emoji', 'Segoe UI Symbol'" x="36.34375" y="70.796875">
						20%
				</text>
			</g>
			<g clip-path="url(#cl_4)">
				<text transform="matrix(6.12323e-17 -1 1 6.12323e-17 502 172)" font-size="14" font-family="'Arial', -apple-system, BlinkMacSystemFont, 'Segoe UI', Roboto, Helvetica, Arial, sans-serif, 'Apple Color Emoji', 'Segoe UI Emoji', 'Segoe UI Symbol'" x="-143.79688" y="-45">
						Percentage
				</text>
			</g>
			<path fill="white" fill-opacity="0.80000001" d="M442 454L442 438Q442 437.853 442.014 437.706Q442.029 437.559 442.058 437.415Q442.086 437.27 442.129 437.129Q442.172 436.988 442.228 436.852Q442.285 436.716 442.354 436.586Q442.424 436.456 442.506 436.333Q442.587 436.211 442.681 436.097Q442.774 435.983 442.879 435.879Q442.983 435.774 443.097 435.681Q443.211 435.587 443.333 435.506Q443.456 435.424 443.586 435.354Q443.716 435.285 443.852 435.228Q443.988 435.172 444.129 435.129Q444.27 435.086 444.415 435.058Q444.559 435.029 444.706 435.014Q444.853 435 445 435L741 435Q741.147 435 741.294 435.014Q741.441 435.029 741.585 435.058Q741.73 435.086 741.871 435.129Q742.012 435.172 742.148 435.228Q742.284 435.285 742.414 435.354Q742.544 435.424 742.667 435.506Q742.789 435.587 742.903 435.681Q743.017 435.774 743.121 435.879Q743.226 435.983 743.319 436.097Q743.412 436.211 743.494 436.333Q743.576 436.456 743.646 436.586Q743.715 436.716 743.772 436.852Q743.828 436.988 743.871 437.129Q743.914 437.27 743.942 437.415Q743.971 437.559 743.986 437.706Q744 437.853 744 438L744 454Q744 454.147 743.986 454.294Q743.971 454.441 743.942 454.585Q743.914 454.73 743.871 454.871Q743.828 455.012 743.772 455.148Q743.715 455.284 743.646 455.414Q743.576 455.544 743.494 455.667Q743.412 455.789 743.319 455.903Q743.226 456.017 743.121 456.121Q743.017 456.226 742.903 456.319Q742.789 456.413 742.667 456.494Q742.544 456.576 742.414 456.646Q742.284 456.715 742.148 456.772Q742.012 456.828 741.871 456.871Q741.73 456.914 741.585 456.942Q741.441 456.971 741.294 456.986Q741.147 457 741 457L445 457Q444.853 457 444.706 456.986Q444.559 456.971 444.415 456.942Q444.27 456.914 444.129 456.871Q443.988 456.828 443.852 456.772Q443.716 456.715 443.586 456.646Q443.456 456.576 443.333 456.494Q443.211 456.413 443.097 456.319Q442.983 456.226 442.879 456.121Q442.774 456.017 442.681 455.903Q442.587 455.789 442.506 455.667Q442.424 455.544 442.354 455.414Q442.285 455.284 442.228 455.148Q442.172 455.012 442.129 454.871Q442.086 454.73 442.058 454.585Q442.029 454.441 442.014 454.294Q442 454.147 442 454Z"/>
			<ellipse fill="#666" cx="455" cy="446" rx="8" ry="8"/>
			<text fill="white" font-size="12" font-style="italic" font-weight="600" font-family="'Arial', -apple-system, BlinkMacSystemFont, 'Segoe UI', Roboto, Helvetica, Arial, sans-serif, 'Apple Color Emoji', 'Segoe UI Emoji', 'Segoe UI Symbol'" x="453.32812" y="450">
					i
			</text>
			<text fill="#666" font-size="12" font-style="italic" font-family="'Arial', -apple-system, BlinkMacSystemFont, 'Segoe UI', Roboto, Helvetica, Arial, sans-serif, 'Apple Color Emoji', 'Segoe UI Emoji', 'Segoe UI Symbol'" x="468" y="450">
					Sources &amp; Uses framework for integrated financing
			</text>
			<path fill="white" d="M37.5 795L37.5 488Q37.5 487.89 37.5054 487.779Q37.5108 487.669 37.5217 487.559Q37.5325 487.449 37.5487 487.34Q37.5649 487.23 37.5865 487.122Q37.608 487.014 37.6349 486.907Q37.6617 486.799 37.6938 486.694Q37.7258 486.588 37.763 486.484Q37.8003 486.38 37.8425 486.278Q37.8848 486.176 37.932 486.076Q37.9793 485.976 38.0313 485.879Q38.0834 485.781 38.1402 485.686Q38.197 485.592 38.2584 485.5Q38.3198 485.408 38.3856 485.319Q38.4514 485.231 38.5215 485.145Q38.5915 485.06 38.6657 484.978Q38.7399 484.896 38.818 484.818Q38.8961 484.74 38.978 484.666Q39.0598 484.592 39.1452 484.521Q39.2306 484.451 39.3193 484.386Q39.4081 484.32 39.4999 484.258Q39.5918 484.197 39.6865 484.14Q39.7813 484.083 39.8787 484.031Q39.9761 483.979 40.076 483.932Q40.1759 483.885 40.2779 483.842Q40.38 483.8 40.484 483.763Q40.588 483.726 40.6937 483.694Q40.7994 483.662 40.9066 483.635Q41.0137 483.608 41.1221 483.586Q41.2304 483.565 41.3397 483.549Q41.449 483.532 41.5589 483.522Q41.6689 483.511 41.7792 483.505Q41.8895 483.5 42 483.5L406 483.5Q406.11 483.5 406.221 483.505Q406.331 483.511 406.441 483.522Q406.551 483.533 406.66 483.549Q406.77 483.565 406.878 483.586Q406.986 483.608 407.093 483.635Q407.201 483.662 407.306 483.694Q407.412 483.726 407.516 483.763Q407.62 483.8 407.722 483.843Q407.824 483.885 407.924 483.932Q408.024 483.979 408.121 484.031Q408.219 484.083 408.313 484.14Q408.408 484.197 408.5 484.258Q408.592 484.32 408.681 484.386Q408.769 484.451 408.855 484.521Q408.94 484.592 409.022 484.666Q409.104 484.74 409.182 484.818Q409.26 484.896 409.334 484.978Q409.408 485.06 409.479 485.145Q409.549 485.231 409.614 485.319Q409.68 485.408 409.742 485.5Q409.803 485.592 409.86 485.686Q409.917 485.781 409.969 485.879Q410.021 485.976 410.068 486.076Q410.115 486.176 410.157 486.278Q410.2 486.38 410.237 486.484Q410.274 486.588 410.306 486.694Q410.338 486.799 410.365 486.907Q410.392 487.014 410.414 487.122Q410.435 487.23 410.451 487.34Q410.467 487.449 410.478 487.559Q410.489 487.669 410.495 487.779Q410.5 487.89 410.5 488L410.5 795Q410.5 795.11 410.495 795.221Q410.489 795.331 410.478 795.441Q410.467 795.551 410.451 795.66Q410.435 795.769 410.414 795.878Q410.392 795.986 410.365 796.093Q410.338 796.201 410.306 796.306Q410.274 796.412 410.237 796.516Q410.2 796.62 410.157 796.722Q410.115 796.824 410.068 796.924Q410.021 797.024 409.969 797.121Q409.917 797.219 409.86 797.313Q409.803 797.408 409.742 797.5Q409.68 797.592 409.614 797.681Q409.549 797.769 409.479 797.855Q409.408 797.94 409.334 798.022Q409.26 798.104 409.182 798.182Q409.104 798.26 409.022 798.334Q408.94 798.408 408.855 798.478Q408.769 798.548 408.681 798.614Q408.592 798.68 408.5 798.741Q408.408 798.803 408.313 798.86Q408.219 798.916 408.121 798.969Q408.024 799.021 407.924 799.068Q407.824 799.115 407.722 799.157Q407.62 799.2 407.516 799.237Q407.412 799.274 407.306 799.306Q407.201 799.338 407.093 799.365Q406.986 799.392 406.878 799.413Q406.77 799.435 406.66 799.451Q406.551 799.467 406.441 799.478Q406.331 799.489 406.221 799.495Q406.11 799.5 406 799.5L42 799.5Q41.8895 799.5 41.7792 799.495Q41.6689 799.489 41.5589 799.478Q41.449 799.467 41.3397 799.451Q41.2304 799.435 41.1221 799.413Q41.0137 799.392 40.9066 799.365Q40.7994 799.338 40.6937 799.306Q40.588 799.274 40.484 799.237Q40.38 799.2 40.2779 799.157Q40.1759 799.115 40.076 799.068Q39.9761 799.021 39.8787 798.969Q39.7813 798.916 39.6865 798.86Q39.5918 798.803 39.4999 798.741Q39.4081 798.68 39.3193 798.614Q39.2306 798.549 39.1452 798.478Q39.0598 798.408 38.978 798.334Q38.8961 798.26 38.818 798.182Q38.7399 798.104 38.6657 798.022Q38.5915 797.94 38.5215 797.855Q38.4514 797.769 38.3856 797.681Q38.3198 797.592 38.2584 797.5Q38.197 797.408 38.1402 797.313Q38.0834 797.219 38.0313 797.121Q37.9793 797.024 37.932 796.924Q37.8848 796.824 37.8425 796.722Q37.8003 796.62 37.763 796.516Q37.7258 796.412 37.6938 796.306Q37.6617 796.2 37.6349 796.093Q37.608 795.986 37.5865 795.878Q37.5649 795.769 37.5487 795.66Q37.5325 795.551 37.5217 795.441Q37.5108 795.331 37.5054 795.221Q37.5 795.11 37.5 795Z"/>
			<path fill="none" stroke="#E0E0E0" stroke-width="1" stroke-miterlimit="4" d="M37.5 795L37.5 488Q37.5 487.89 37.5054 487.779Q37.5108 487.669 37.5217 487.559Q37.5325 487.449 37.5487 487.34Q37.5649 487.23 37.5865 487.122Q37.608 487.014 37.6349 486.907Q37.6617 486.799 37.6938 486.694Q37.7258 486.588 37.763 486.484Q37.8003 486.38 37.8425 486.278Q37.8848 486.176 37.932 486.076Q37.9793 485.976 38.0313 485.879Q38.0834 485.781 38.1402 485.686Q38.197 485.592 38.2584 485.5Q38.3198 485.408 38.3856 485.319Q38.4514 485.231 38.5215 485.145Q38.5915 485.06 38.6657 484.978Q38.7399 484.896 38.818 484.818Q38.8961 484.74 38.978 484.666Q39.0598 484.592 39.1452 484.521Q39.2306 484.451 39.3193 484.386Q39.4081 484.32 39.4999 484.258Q39.5918 484.197 39.6865 484.14Q39.7813 484.083 39.8787 484.031Q39.9761 483.979 40.076 483.932Q40.1759 483.885 40.2779 483.842Q40.38 483.8 40.484 483.763Q40.588 483.726 40.6937 483.694Q40.7994 483.662 40.9066 483.635Q41.0137 483.608 41.1221 483.586Q41.2304 483.565 41.3397 483.549Q41.449 483.532 41.5589 483.522Q41.6689 483.511 41.7792 483.505Q41.8895 483.5 42 483.5L406 483.5Q406.11 483.5 406.221 483.505Q406.331 483.511 406.441 483.522Q406.551 483.533 406.66 483.549Q406.77 483.565 406.878 483.586Q406.986 483.608 407.093 483.635Q407.201 483.662 407.306 483.694Q407.412 483.726 407.516 483.763Q407.62 483.8 407.722 483.843Q407.824 483.885 407.924 483.932Q408.024 483.979 408.121 484.031Q408.219 484.083 408.313 484.14Q408.408 484.197 408.5 484.258Q408.592 484.32 408.681 484.386Q408.769 484.451 408.855 484.521Q408.94 484.592 409.022 484.666Q409.104 484.74 409.182 484.818Q409.26 484.896 409.334 484.978Q409.408 485.06 409.479 485.145Q409.549 485.231 409.614 485.319Q409.68 485.408 409.742 485.5Q409.803 485.592 409.86 485.686Q409.917 485.781 409.969 485.879Q410.021 485.976 410.068 486.076Q410.115 486.176 410.157 486.278Q410.2 486.38 410.237 486.484Q410.274 486.588 410.306 486.694Q410.338 486.799 410.365 486.907Q410.392 487.014 410.414 487.122Q410.435 487.23 410.451 487.34Q410.467 487.449 410.478 487.559Q410.489 487.669 410.495 487.779Q410.5 487.89 410.5 488L410.5 795Q410.5 795.11 410.495 795.221Q410.489 795.331 410.478 795.441Q410.467 795.551 410.451 795.66Q410.435 795.769 410.414 795.878Q410.392 795.986 410.365 796.093Q410.338 796.201 410.306 796.306Q410.274 796.412 410.237 796.516Q410.2 796.62 410.157 796.722Q410.115 796.824 410.068 796.924Q410.021 797.024 409.969 797.121Q409.917 797.219 409.86 797.313Q409.803 797.408 409.742 797.5Q409.68 797.592 409.614 797.681Q409.549 797.769 409.479 797.855Q409.408 797.94 409.334 798.022Q409.26 798.104 409.182 798.182Q409.104 798.26 409.022 798.334Q408.94 798.408 408.855 798.478Q408.769 798.548 408.681 798.614Q408.592 798.68 408.5 798.741Q408.408 798.803 408.313 798.86Q408.219 798.916 408.121 798.969Q408.024 799.021 407.924 799.068Q407.824 799.115 407.722 799.157Q407.62 799.2 407.516 799.237Q407.412 799.274 407.306 799.306Q407.201 799.338 407.093 799.365Q406.986 799.392 406.878 799.413Q406.77 799.435 406.66 799.451Q406.551 799.467 406.441 799.478Q406.331 799.489 406.221 799.495Q406.11 799.5 406 799.5L42 799.5Q41.8895 799.5 41.7792 799.495Q41.6689 799.489 41.5589 799.478Q41.449 799.467 41.3397 799.451Q41.2304 799.435 41.1221 799.413Q41.0137 799.392 40.9066 799.365Q40.7994 799.338 40.6937 799.306Q40.588 799.274 40.484 799.237Q40.38 799.2 40.2779 799.157Q40.1759 799.115 40.076 799.068Q39.9761 799.021 39.8787 798.969Q39.7813 798.916 39.6865 798.86Q39.5918 798.803 39.4999 798.741Q39.4081 798.68 39.3193 798.614Q39.2306 798.549 39.1452 798.478Q39.0598 798.408 38.978 798.334Q38.8961 798.26 38.818 798.182Q38.7399 798.104 38.6657 798.022Q38.5915 797.94 38.5215 797.855Q38.4514 797.769 38.3856 797.681Q38.3198 797.592 38.2584 797.5Q38.197 797.408 38.1402 797.313Q38.0834 797.219 38.0313 797.121Q37.9793 797.024 37.932 796.924Q37.8848 796.824 37.8425 796.722Q37.8003 796.62 37.763 796.516Q37.7258 796.412 37.6938 796.306Q37.6617 796.2 37.6349 796.093Q37.608 795.986 37.5865 795.878Q37.5649 795.769 37.5487 795.66Q37.5325 795.551 37.5217 795.441Q37.5108 795.331 37.5054 795.221Q37.5 795.11 37.5 795Z"/>
			<text font-size="16" font-weight="600" font-family="'Arial', -apple-system, BlinkMacSystemFont, 'Segoe UI', Roboto, Helvetica, Arial, sans-serif, 'Apple Color Emoji', 'Segoe UI Emoji', 'Segoe UI Symbol'" x="86.640625" y="513">
					Primary Debt Structures for Mobility
			</text>
			<text font-size="16" font-weight="600" font-family="'Arial', -apple-system, BlinkMacSystemFont, 'Segoe UI', Roboto, Helvetica, Arial, sans-serif, 'Apple Color Emoji', 'Segoe UI Emoji', 'Segoe UI Symbol'" x="190.20312" y="531">
					Ventures
			</text>
			<clipPath id="cl_5">
				<rect x="53" y="550" width="342" height="183"/>
			</clipPath>
			<g clip-path="url(#cl_5)">
				<path fill="#6B5B95" transform="translate(83 580)" d="M4 10.9412L278 10.9412Q278.197 10.9412 278.392 10.9604Q278.588 10.9797 278.78 11.018Q278.973 11.0564 279.161 11.1134Q279.349 11.1705 279.531 11.2457Q279.712 11.3209 279.886 11.4135Q280.059 11.5061 280.222 11.6153Q280.386 11.7245 280.538 11.8491Q280.689 11.9738 280.828 12.1127Q280.967 12.2517 281.092 12.4036Q281.217 12.5555 281.326 12.7189Q281.435 12.8823 281.528 13.0556Q281.62 13.2289 281.695 13.4104Q281.771 13.592 281.828 13.78Q281.885 13.9681 281.923 14.1608Q281.961 14.3535 281.981 14.5491Q282 14.7447 282 14.9412L282 23.3529Q282 23.5494 281.981 23.745Q281.961 23.9406 281.923 24.1333Q281.885 24.326 281.828 24.5141Q281.771 24.7021 281.695 24.8837Q281.62 25.0652 281.528 25.2385Q281.435 25.4118 281.326 25.5752Q281.217 25.7386 281.092 25.8905Q280.967 26.0424 280.828 26.1814Q280.689 26.3203 280.538 26.445Q280.386 26.5696 280.222 26.6788Q280.059 26.788 279.886 26.8806Q279.712 26.9733 279.531 27.0485Q279.349 27.1237 279.161 27.1807Q278.973 27.2377 278.78 27.2761Q278.588 27.3144 278.392 27.3337Q278.197 27.3529 278 27.3529L4 27.3529Q3.80349 27.3529 3.60793 27.3337Q3.41237 27.3144 3.21964 27.2761Q3.02691 27.2377 2.83886 27.1807Q2.65082 27.1237 2.46927 27.0485Q2.28772 26.9733 2.11441 26.8806Q1.94111 26.788 1.77772 26.6788Q1.61433 26.5696 1.46243 26.445Q1.31052 26.3203 1.17157 26.1814Q1.03262 26.0424 0.907958 25.8905Q0.783295 25.7386 0.674121 25.5752Q0.564948 25.4118 0.472315 25.2385Q0.379682 25.0652 0.304482 24.8837Q0.229282 24.7021 0.172239 24.5141Q0.115196 24.326 0.0768589 24.1333Q0.0385222 23.9406 0.0192611 23.745Q0 23.5494 0 23.3529L0 14.9412Q0 14.7447 0.0192611 14.5491Q0.0385222 14.3535 0.0768589 14.1608Q0.115196 13.9681 0.172239 13.78Q0.229282 13.592 0.304482 13.4104Q0.379682 13.2289 0.472315 13.0556Q0.564948 12.8823 0.674121 12.7189Q0.783295 12.5555 0.907958 12.4036Q1.03262 12.2517 1.17157 12.1127Q1.31052 11.9738 1.46243 11.8491Q1.61433 11.7245 1.77772 11.6153Q1.94111 11.5061 2.11441 11.4135Q2.28772 11.3209 2.46927 11.2457Q2.65082 11.1705 2.83886 11.1134Q3.02691 11.0564 3.21964 11.018Q3.41237 10.9797 3.60793 10.9604Q3.80349 10.9412 4 10.9412Z"/>
			</g>
			<g clip-path="url(#cl_5)">
				<path fill="#7765A6" transform="translate(83 580)" d="M4 38.2941L278 38.2941Q278.197 38.2941 278.392 38.3134Q278.588 38.3326 278.78 38.371Q278.973 38.4093 279.161 38.4664Q279.349 38.5234 279.531 38.5986Q279.712 38.6738 279.886 38.7664Q280.059 38.8591 280.222 38.9682Q280.386 39.0774 280.538 39.2021Q280.689 39.3267 280.828 39.4657Q280.967 39.6046 281.092 39.7565Q281.217 39.9084 281.326 40.0718Q281.435 40.2352 281.528 40.4085Q281.62 40.5818 281.695 40.7634Q281.771 40.9449 281.828 41.133Q281.885 41.321 281.923 41.5138Q281.961 41.7065 281.981 41.9021Q282 42.0976 282 42.2941L282 50.7059Q282 50.9024 281.981 51.0979Q281.961 51.2935 281.923 51.4862Q281.885 51.679 281.828 51.867Q281.771 52.0551 281.695 52.2366Q281.62 52.4182 281.528 52.5915Q281.435 52.7648 281.326 52.9282Q281.217 53.0915 281.092 53.2435Q280.967 53.3954 280.828 53.5343Q280.689 53.6733 280.538 53.7979Q280.386 53.9226 280.222 54.0317Q280.059 54.1409 279.886 54.2336Q279.712 54.3262 279.531 54.4014Q279.349 54.4766 279.161 54.5336Q278.973 54.5907 278.78 54.629Q278.588 54.6674 278.392 54.6866Q278.197 54.7059 278 54.7059L4 54.7059Q3.80349 54.7059 3.60793 54.6866Q3.41237 54.6674 3.21964 54.629Q3.02691 54.5907 2.83886 54.5336Q2.65082 54.4766 2.46927 54.4014Q2.28772 54.3262 2.11441 54.2336Q1.94111 54.1409 1.77772 54.0317Q1.61433 53.9226 1.46243 53.7979Q1.31052 53.6733 1.17157 53.5343Q1.03262 53.3954 0.907958 53.2435Q0.783295 53.0915 0.674121 52.9282Q0.564948 52.7648 0.472315 52.5915Q0.379682 52.4182 0.304482 52.2366Q0.229282 52.0551 0.172239 51.867Q0.115196 51.679 0.0768589 51.4862Q0.0385222 51.2935 0.0192611 51.0979Q0 50.9024 0 50.7059L0 42.2941Q0 42.0976 0.0192611 41.9021Q0.0385222 41.7065 0.0768589 41.5138Q0.115196 41.321 0.172239 41.133Q0.229282 40.9449 0.304482 40.7634Q0.379682 40.5818 0.472315 40.4085Q0.564948 40.2352 0.674121 40.0718Q0.783295 39.9084 0.907958 39.7565Q1.03262 39.6046 1.17157 39.4657Q1.31052 39.3267 1.46243 39.2021Q1.61433 39.0774 1.77772 38.9682Q1.94111 38.8591 2.11441 38.7664Q2.28772 38.6738 2.46927 38.5986Q2.65082 38.5234 2.83886 38.4664Q3.02691 38.4093 3.21964 38.371Q3.41237 38.3326 3.60793 38.3134Q3.80349 38.2941 4 38.2941Z"/>
			</g>
			<g clip-path="url(#cl_5)">
				<path fill="#8571B9" transform="translate(83 580)" d="M4 65.6471L278 65.6471Q278.197 65.6471 278.392 65.6663Q278.588 65.6856 278.78 65.7239Q278.973 65.7622 279.161 65.8193Q279.349 65.8763 279.531 65.9515Q279.712 66.0267 279.886 66.1194Q280.059 66.212 280.222 66.3212Q280.386 66.4303 280.538 66.555Q280.689 66.6797 280.828 66.8186Q280.967 66.9576 281.092 67.1095Q281.217 67.2614 281.326 67.4248Q281.435 67.5882 281.528 67.7615Q281.62 67.9348 281.695 68.1163Q281.771 68.2979 281.828 68.4859Q281.885 68.674 281.923 68.8667Q281.961 69.0594 281.981 69.255Q282 69.4505 282 69.6471L282 78.0588Q282 78.2553 281.981 78.4509Q281.961 78.6464 281.923 78.8392Q281.885 79.0319 281.828 79.22Q281.771 79.408 281.695 79.5895Q281.62 79.7711 281.528 79.9444Q281.435 80.1177 281.326 80.2811Q281.217 80.4445 281.092 80.5964Q280.967 80.7483 280.828 80.8872Q280.689 81.0262 280.538 81.1509Q280.386 81.2755 280.222 81.3847Q280.059 81.4939 279.886 81.5865Q279.712 81.6791 279.531 81.7543Q279.349 81.8295 279.161 81.8866Q278.973 81.9436 278.78 81.9819Q278.588 82.0203 278.392 82.0396Q278.197 82.0588 278 82.0588L4 82.0588Q3.80349 82.0588 3.60793 82.0396Q3.41237 82.0203 3.21964 81.982Q3.02691 81.9436 2.83886 81.8866Q2.65082 81.8295 2.46927 81.7543Q2.28772 81.6791 2.11441 81.5865Q1.94111 81.4939 1.77772 81.3847Q1.61433 81.2755 1.46243 81.1509Q1.31052 81.0262 1.17157 80.8872Q1.03262 80.7483 0.907958 80.5964Q0.783295 80.4445 0.674121 80.2811Q0.564948 80.1177 0.472315 79.9444Q0.379682 79.7711 0.304482 79.5895Q0.229282 79.408 0.172239 79.22Q0.115196 79.0319 0.0768589 78.8392Q0.0385222 78.6464 0.0192611 78.4509Q0 78.2553 0 78.0588L0 69.6471Q0 69.4505 0.0192611 69.255Q0.0385222 69.0594 0.0768589 68.8667Q0.115196 68.674 0.172239 68.4859Q0.229282 68.2979 0.304482 68.1163Q0.379682 67.9348 0.472315 67.7615Q0.564948 67.5882 0.674121 67.4248Q0.783295 67.2614 0.907958 67.1095Q1.03262 66.9576 1.17157 66.8186Q1.31052 66.6797 1.46243 66.555Q1.61433 66.4303 1.77772 66.3212Q1.94111 66.212 2.11441 66.1194Q2.28772 66.0267 2.46927 65.9515Q2.65082 65.8763 2.83886 65.8193Q3.02691 65.7622 3.21964 65.7239Q3.41237 65.6856 3.60793 65.6663Q3.80349 65.6471 4 65.6471Z"/>
			</g>
			<filter id="cfilter_0" x="0%" y="0%" width="100%" height="100%">
				<feFlood flood-color="black" flood-opacity="0.50196081" result="flood"/>
				<feComposite in="flood" operator="atop"/>
			</filter>
			<filter id="cfilter_1">
				<feGaussianBlur stdDeviation="1"/>
			</filter>
			<g clip-path="url(#cl_5)">
				<text fill="white" filter="url(#cfilter_0) url(#cfilter_1)" transform="translate(84 581)" font-size="14" font-weight="600" font-family="'Arial', -apple-system, BlinkMacSystemFont, 'Segoe UI', Roboto, Helvetica, Arial, sans-serif, 'Apple Color Emoji', 'Segoe UI Emoji', 'Segoe UI Symbol'" x="15" y="16.40625">
						Project Finance
				</text>
			</g>
			<g clip-path="url(#cl_5)">
				<text fill="white" transform="translate(83 580)" font-size="14" font-weight="600" font-family="'Arial', -apple-system, BlinkMacSystemFont, 'Segoe UI', Roboto, Helvetica, Arial, sans-serif, 'Apple Color Emoji', 'Segoe UI Emoji', 'Segoe UI Symbol'" x="15" y="16.40625">
						Project Finance
				</text>
			</g>
			<filter id="cfilter_2" x="0%" y="0%" width="100%" height="100%">
				<feFlood flood-color="black" flood-opacity="0.50196081" result="flood"/>
				<feComposite in="flood" operator="atop"/>
			</filter>
			<filter id="cfilter_3">
				<feGaussianBlur stdDeviation="1"/>
			</filter>
			<g clip-path="url(#cl_5)">
				<text fill="white" filter="url(#cfilter_2) url(#cfilter_3)" transform="translate(84 581)" font-size="14" font-weight="600" font-family="'Arial', -apple-system, BlinkMacSystemFont, 'Segoe UI', Roboto, Helvetica, Arial, sans-serif, 'Apple Color Emoji', 'Segoe UI Emoji', 'Segoe UI Symbol'" x="15" y="43.75">
						Receivables Financing
				</text>
			</g>
			<g clip-path="url(#cl_5)">
				<text fill="white" transform="translate(83 580)" font-size="14" font-weight="600" font-family="'Arial', -apple-system, BlinkMacSystemFont, 'Segoe UI', Roboto, Helvetica, Arial, sans-serif, 'Apple Color Emoji', 'Segoe UI Emoji', 'Segoe UI Symbol'" x="15" y="43.75">
						Receivables Financing
				</text>
			</g>
			<filter id="cfilter_4" x="0%" y="0%" width="100%" height="100%">
				<feFlood flood-color="black" flood-opacity="0.50196081" result="flood"/>
				<feComposite in="flood" operator="atop"/>
			</filter>
			<filter id="cfilter_5">
				<feGaussianBlur stdDeviation="1"/>
			</filter>
			<g clip-path="url(#cl_5)">
				<text fill="white" filter="url(#cfilter_4) url(#cfilter_5)" transform="translate(84 581)" font-size="14" font-weight="600" font-family="'Arial', -apple-system, BlinkMacSystemFont, 'Segoe UI', Roboto, Helvetica, Arial, sans-serif, 'Apple Color Emoji', 'Segoe UI Emoji', 'Segoe UI Symbol'" x="15" y="71.109375">
						Equipment Finance
				</text>
			</g>
			<g clip-path="url(#cl_5)">
				<text fill="white" transform="translate(83 580)" font-size="14" font-weight="600" font-family="'Arial', -apple-system, BlinkMacSystemFont, 'Segoe UI', Roboto, Helvetica, Arial, sans-serif, 'Apple Color Emoji', 'Segoe UI Emoji', 'Segoe UI Symbol'" x="15" y="71.109375">
						Equipment Finance
				</text>
			</g>
			<filter id="cfilter_6" x="0%" y="0%" width="100%" height="100%">
				<feFlood flood-color="black" flood-opacity="0.50196081" result="flood"/>
				<feComposite in="flood" operator="atop"/>
			</filter>
			<filter id="cfilter_7">
				<feGaussianBlur stdDeviation="1"/>
			</filter>
			<g clip-path="url(#cl_5)">
				<text fill="white" filter="url(#cfilter_6) url(#cfilter_7)" transform="translate(84 581)" font-size="12" font-family="'Arial', -apple-system, BlinkMacSystemFont, 'Segoe UI', Roboto, Helvetica, Arial, sans-serif, 'Apple Color Emoji', 'Segoe UI Emoji', 'Segoe UI Symbol'" x="15" y="29.875">
						Pre-construction &amp; Construction
				</text>
			</g>
			<g clip-path="url(#cl_5)">
				<text fill="white" transform="translate(83 580)" font-size="12" font-family="'Arial', -apple-system, BlinkMacSystemFont, 'Segoe UI', Roboto, Helvetica, Arial, sans-serif, 'Apple Color Emoji', 'Segoe UI Emoji', 'Segoe UI Symbol'" x="15" y="29.875">
						Pre-construction &amp; Construction
				</text>
			</g>
			<filter id="cfilter_8" x="0%" y="0%" width="100%" height="100%">
				<feFlood flood-color="black" flood-opacity="0.50196081" result="flood"/>
				<feComposite in="flood" operator="atop"/>
			</filter>
			<filter id="cfilter_9">
				<feGaussianBlur stdDeviation="1"/>
			</filter>
			<g clip-path="url(#cl_5)">
				<text fill="white" filter="url(#cfilter_8) url(#cfilter_9)" transform="translate(84 581)" font-size="12" font-family="'Arial', -apple-system, BlinkMacSystemFont, 'Segoe UI', Roboto, Helvetica, Arial, sans-serif, 'Apple Color Emoji', 'Segoe UI Emoji', 'Segoe UI Symbol'" x="15" y="57.234375">
						&gt;50% gross margin
				</text>
			</g>
			<g clip-path="url(#cl_5)">
				<text fill="white" transform="translate(83 580)" font-size="12" font-family="'Arial', -apple-system, BlinkMacSystemFont, 'Segoe UI', Roboto, Helvetica, Arial, sans-serif, 'Apple Color Emoji', 'Segoe UI Emoji', 'Segoe UI Symbol'" x="15" y="57.234375">
						&gt;50% gross margin
				</text>
			</g>
			<filter id="cfilter_10" x="0%" y="0%" width="100%" height="100%">
				<feFlood flood-color="black" flood-opacity="0.50196081" result="flood"/>
				<feComposite in="flood" operator="atop"/>
			</filter>
			<filter id="cfilter_11">
				<feGaussianBlur stdDeviation="1"/>
			</filter>
			<g clip-path="url(#cl_5)">
				<text fill="white" filter="url(#cfilter_10) url(#cfilter_11)" transform="translate(84 581)" font-size="12" font-family="'Arial', -apple-system, BlinkMacSystemFont, 'Segoe UI', Roboto, Helvetica, Arial, sans-serif, 'Apple Color Emoji', 'Segoe UI Emoji', 'Segoe UI Symbol'" x="15" y="84.578125">
						Credit based on asset life &amp; resale value
				</text>
			</g>
			<g clip-path="url(#cl_5)">
				<text fill="white" transform="translate(83 580)" font-size="12" font-family="'Arial', -apple-system, BlinkMacSystemFont, 'Segoe UI', Roboto, Helvetica, Arial, sans-serif, 'Apple Color Emoji', 'Segoe UI Emoji', 'Segoe UI Symbol'" x="15" y="84.578125">
						Credit based on asset life &amp; resale value
				</text>
			</g>
			<path fill="white" fill-opacity="0.80000001" d="M53 786L53 770Q53 769.853 53.0144 769.706Q53.0289 769.559 53.0576 769.415Q53.0864 769.27 53.1292 769.129Q53.172 768.988 53.2284 768.852Q53.2848 768.716 53.3542 768.586Q53.4237 768.456 53.5056 768.333Q53.5875 768.211 53.681 768.097Q53.7745 767.983 53.8787 767.879Q53.9829 767.774 54.0968 767.681Q54.2107 767.587 54.3333 767.505Q54.4558 767.424 54.5858 767.354Q54.7158 767.285 54.8519 767.228Q54.9881 767.172 55.1291 767.129Q55.2702 767.086 55.4147 767.058Q55.5593 767.029 55.7059 767.014Q55.8526 767 56 767L289 767Q289.147 767 289.294 767.014Q289.441 767.029 289.585 767.058Q289.73 767.086 289.871 767.129Q290.012 767.172 290.148 767.228Q290.284 767.285 290.414 767.354Q290.544 767.424 290.667 767.505Q290.789 767.587 290.903 767.681Q291.017 767.774 291.121 767.879Q291.226 767.983 291.319 768.097Q291.413 768.211 291.494 768.333Q291.576 768.456 291.646 768.586Q291.715 768.716 291.772 768.852Q291.828 768.988 291.871 769.129Q291.914 769.27 291.942 769.415Q291.971 769.559 291.986 769.706Q292 769.853 292 770L292 786Q292 786.147 291.986 786.294Q291.971 786.441 291.942 786.585Q291.914 786.73 291.871 786.871Q291.828 787.012 291.772 787.148Q291.715 787.284 291.646 787.414Q291.576 787.544 291.494 787.667Q291.413 787.789 291.319 787.903Q291.226 788.017 291.121 788.121Q291.017 788.226 290.903 788.319Q290.789 788.413 290.667 788.494Q290.544 788.576 290.414 788.646Q290.284 788.715 290.148 788.772Q290.012 788.828 289.871 788.871Q289.73 788.914 289.585 788.942Q289.441 788.971 289.294 788.986Q289.147 789 289 789L56 789Q55.8526 789 55.7059 788.986Q55.5593 788.971 55.4147 788.942Q55.2702 788.914 55.1291 788.871Q54.9881 788.828 54.8519 788.772Q54.7158 788.715 54.5858 788.646Q54.4558 788.576 54.3333 788.494Q54.2107 788.413 54.0968 788.319Q53.9829 788.226 53.8787 788.121Q53.7745 788.017 53.681 787.903Q53.5875 787.789 53.5056 787.667Q53.4237 787.544 53.3542 787.414Q53.2848 787.284 53.2284 787.148Q53.172 787.012 53.1292 786.871Q53.0864 786.73 53.0576 786.585Q53.0289 786.441 53.0144 786.294Q53 786.147 53 786Z"/>
			<ellipse fill="#666" cx="66" cy="778" rx="8" ry="8"/>
			<text fill="white" font-size="12" font-style="italic" font-weight="600" font-family="'Arial', -apple-system, BlinkMacSystemFont, 'Segoe UI', Roboto, Helvetica, Arial, sans-serif, 'Apple Color Emoji', 'Segoe UI Emoji', 'Segoe UI Symbol'" x="64.328125" y="782">
					i
			</text>
			<text fill="#666" font-size="12" font-style="italic" font-family="'Arial', -apple-system, BlinkMacSystemFont, 'Segoe UI', Roboto, Helvetica, Arial, sans-serif, 'Apple Color Emoji', 'Segoe UI Emoji', 'Segoe UI Symbol'" x="79" y="782">
					Specialized debt tailored to asset types
			</text>
			<path fill="white" d="M426.5 795L426.5 488Q426.5 487.89 426.505 487.779Q426.511 487.669 426.522 487.559Q426.533 487.449 426.549 487.34Q426.565 487.23 426.586 487.122Q426.608 487.014 426.635 486.907Q426.662 486.799 426.694 486.694Q426.726 486.588 426.763 486.484Q426.8 486.38 426.842 486.278Q426.885 486.176 426.932 486.076Q426.979 485.976 427.031 485.879Q427.083 485.781 427.14 485.686Q427.197 485.592 427.258 485.5Q427.32 485.408 427.386 485.319Q427.451 485.231 427.521 485.145Q427.592 485.06 427.666 484.978Q427.74 484.896 427.818 484.818Q427.896 484.74 427.978 484.666Q428.06 484.592 428.145 484.521Q428.231 484.451 428.319 484.386Q428.408 484.32 428.5 484.258Q428.592 484.197 428.686 484.14Q428.781 484.083 428.879 484.031Q428.976 483.979 429.076 483.932Q429.176 483.885 429.278 483.842Q429.38 483.8 429.484 483.763Q429.588 483.726 429.694 483.694Q429.799 483.662 429.907 483.635Q430.014 483.608 430.122 483.586Q430.23 483.565 430.34 483.549Q430.449 483.532 430.559 483.522Q430.669 483.511 430.779 483.505Q430.89 483.5 431 483.5L793 483.5Q793.11 483.5 793.221 483.505Q793.331 483.511 793.441 483.522Q793.551 483.533 793.66 483.549Q793.77 483.565 793.878 483.586Q793.986 483.608 794.093 483.635Q794.201 483.662 794.306 483.694Q794.412 483.726 794.516 483.763Q794.62 483.8 794.722 483.843Q794.824 483.885 794.924 483.932Q795.024 483.979 795.121 484.031Q795.219 484.083 795.313 484.14Q795.408 484.197 795.5 484.258Q795.592 484.32 795.681 484.386Q795.769 484.451 795.855 484.521Q795.94 484.592 796.022 484.666Q796.104 484.74 796.182 484.818Q796.26 484.896 796.334 484.978Q796.408 485.06 796.479 485.145Q796.549 485.231 796.614 485.319Q796.68 485.408 796.741 485.5Q796.803 485.592 796.86 485.686Q796.916 485.781 796.969 485.879Q797.021 485.976 797.068 486.076Q797.115 486.176 797.157 486.278Q797.2 486.38 797.237 486.484Q797.274 486.588 797.306 486.694Q797.338 486.799 797.365 486.907Q797.392 487.014 797.413 487.122Q797.435 487.23 797.451 487.34Q797.467 487.449 797.478 487.559Q797.489 487.669 797.495 487.779Q797.5 487.89 797.5 488L797.5 795Q797.5 795.11 797.495 795.221Q797.489 795.331 797.478 795.441Q797.467 795.551 797.451 795.66Q797.435 795.769 797.413 795.878Q797.392 795.986 797.365 796.093Q797.338 796.201 797.306 796.306Q797.274 796.412 797.237 796.516Q797.2 796.62 797.157 796.722Q797.115 796.824 797.068 796.924Q797.021 797.024 796.969 797.121Q796.917 797.219 796.86 797.313Q796.803 797.408 796.742 797.5Q796.68 797.592 796.614 797.681Q796.549 797.769 796.479 797.855Q796.408 797.94 796.334 798.022Q796.26 798.104 796.182 798.182Q796.104 798.26 796.022 798.334Q795.94 798.408 795.855 798.478Q795.769 798.548 795.681 798.614Q795.592 798.68 795.5 798.741Q795.408 798.803 795.313 798.86Q795.219 798.916 795.121 798.969Q795.024 799.021 794.924 799.068Q794.824 799.115 794.722 799.157Q794.62 799.2 794.516 799.237Q794.412 799.274 794.306 799.306Q794.201 799.338 794.093 799.365Q793.986 799.392 793.878 799.413Q793.77 799.435 793.66 799.451Q793.551 799.467 793.441 799.478Q793.331 799.489 793.221 799.495Q793.11 799.5 793 799.5L431 799.5Q430.89 799.5 430.779 799.495Q430.669 799.489 430.559 799.478Q430.449 799.467 430.34 799.451Q430.23 799.435 430.122 799.413Q430.014 799.392 429.906 799.365Q429.799 799.338 429.694 799.306Q429.588 799.274 429.484 799.237Q429.38 799.2 429.278 799.157Q429.176 799.115 429.076 799.068Q428.976 799.021 428.879 798.969Q428.781 798.916 428.686 798.86Q428.592 798.803 428.5 798.741Q428.408 798.68 428.319 798.614Q428.231 798.549 428.145 798.478Q428.06 798.408 427.978 798.334Q427.896 798.26 427.818 798.182Q427.74 798.104 427.666 798.022Q427.591 797.94 427.521 797.855Q427.451 797.769 427.385 797.681Q427.32 797.592 427.258 797.5Q427.197 797.408 427.14 797.313Q427.083 797.219 427.031 797.121Q426.979 797.024 426.932 796.924Q426.885 796.824 426.842 796.722Q426.8 796.62 426.763 796.516Q426.726 796.412 426.694 796.306Q426.662 796.2 426.635 796.093Q426.608 795.986 426.586 795.878Q426.565 795.769 426.549 795.66Q426.533 795.551 426.522 795.441Q426.511 795.331 426.505 795.221Q426.5 795.11 426.5 795Z"/>
			<path fill="none" stroke="#E0E0E0" stroke-width="1" stroke-miterlimit="4" d="M426.5 795L426.5 488Q426.5 487.89 426.505 487.779Q426.511 487.669 426.522 487.559Q426.533 487.449 426.549 487.34Q426.565 487.23 426.586 487.122Q426.608 487.014 426.635 486.907Q426.662 486.799 426.694 486.694Q426.726 486.588 426.763 486.484Q426.8 486.38 426.842 486.278Q426.885 486.176 426.932 486.076Q426.979 485.976 427.031 485.879Q427.083 485.781 427.14 485.686Q427.197 485.592 427.258 485.5Q427.32 485.408 427.386 485.319Q427.451 485.231 427.521 485.145Q427.592 485.06 427.666 484.978Q427.74 484.896 427.818 484.818Q427.896 484.74 427.978 484.666Q428.06 484.592 428.145 484.521Q428.231 484.451 428.319 484.386Q428.408 484.32 428.5 484.258Q428.592 484.197 428.686 484.14Q428.781 484.083 428.879 484.031Q428.976 483.979 429.076 483.932Q429.176 483.885 429.278 483.842Q429.38 483.8 429.484 483.763Q429.588 483.726 429.694 483.694Q429.799 483.662 429.907 483.635Q430.014 483.608 430.122 483.586Q430.23 483.565 430.34 483.549Q430.449 483.532 430.559 483.522Q430.669 483.511 430.779 483.505Q430.89 483.5 431 483.5L793 483.5Q793.11 483.5 793.221 483.505Q793.331 483.511 793.441 483.522Q793.551 483.533 793.66 483.549Q793.77 483.565 793.878 483.586Q793.986 483.608 794.093 483.635Q794.201 483.662 794.306 483.694Q794.412 483.726 794.516 483.763Q794.62 483.8 794.722 483.843Q794.824 483.885 794.924 483.932Q795.024 483.979 795.121 484.031Q795.219 484.083 795.313 484.14Q795.408 484.197 795.5 484.258Q795.592 484.32 795.681 484.386Q795.769 484.451 795.855 484.521Q795.94 484.592 796.022 484.666Q796.104 484.74 796.182 484.818Q796.26 484.896 796.334 484.978Q796.408 485.06 796.479 485.145Q796.549 485.231 796.614 485.319Q796.68 485.408 796.741 485.5Q796.803 485.592 796.86 485.686Q796.916 485.781 796.969 485.879Q797.021 485.976 797.068 486.076Q797.115 486.176 797.157 486.278Q797.2 486.38 797.237 486.484Q797.274 486.588 797.306 486.694Q797.338 486.799 797.365 486.907Q797.392 487.014 797.413 487.122Q797.435 487.23 797.451 487.34Q797.467 487.449 797.478 487.559Q797.489 487.669 797.495 487.779Q797.5 487.89 797.5 488L797.5 795Q797.5 795.11 797.495 795.221Q797.489 795.331 797.478 795.441Q797.467 795.551 797.451 795.66Q797.435 795.769 797.413 795.878Q797.392 795.986 797.365 796.093Q797.338 796.201 797.306 796.306Q797.274 796.412 797.237 796.516Q797.2 796.62 797.157 796.722Q797.115 796.824 797.068 796.924Q797.021 797.024 796.969 797.121Q796.917 797.219 796.86 797.313Q796.803 797.408 796.742 797.5Q796.68 797.592 796.614 797.681Q796.549 797.769 796.479 797.855Q796.408 797.94 796.334 798.022Q796.26 798.104 796.182 798.182Q796.104 798.26 796.022 798.334Q795.94 798.408 795.855 798.478Q795.769 798.548 795.681 798.614Q795.592 798.68 795.5 798.741Q795.408 798.803 795.313 798.86Q795.219 798.916 795.121 798.969Q795.024 799.021 794.924 799.068Q794.824 799.115 794.722 799.157Q794.62 799.2 794.516 799.237Q794.412 799.274 794.306 799.306Q794.201 799.338 794.093 799.365Q793.986 799.392 793.878 799.413Q793.77 799.435 793.66 799.451Q793.551 799.467 793.441 799.478Q793.331 799.489 793.221 799.495Q793.11 799.5 793 799.5L431 799.5Q430.89 799.5 430.779 799.495Q430.669 799.489 430.559 799.478Q430.449 799.467 430.34 799.451Q430.23 799.435 430.122 799.413Q430.014 799.392 429.906 799.365Q429.799 799.338 429.694 799.306Q429.588 799.274 429.484 799.237Q429.38 799.2 429.278 799.157Q429.176 799.115 429.076 799.068Q428.976 799.021 428.879 798.969Q428.781 798.916 428.686 798.86Q428.592 798.803 428.5 798.741Q428.408 798.68 428.319 798.614Q428.231 798.549 428.145 798.478Q428.06 798.408 427.978 798.334Q427.896 798.26 427.818 798.182Q427.74 798.104 427.666 798.022Q427.591 797.94 427.521 797.855Q427.451 797.769 427.385 797.681Q427.32 797.592 427.258 797.5Q427.197 797.408 427.14 797.313Q427.083 797.219 427.031 797.121Q426.979 797.024 426.932 796.924Q426.885 796.824 426.842 796.722Q426.8 796.62 426.763 796.516Q426.726 796.412 426.694 796.306Q426.662 796.2 426.635 796.093Q426.608 795.986 426.586 795.878Q426.565 795.769 426.549 795.66Q426.533 795.551 426.522 795.441Q426.511 795.331 426.505 795.221Q426.5 795.11 426.5 795Z"/>
			<text font-size="16" font-weight="600" font-family="'Arial', -apple-system, BlinkMacSystemFont, 'Segoe UI', Roboto, Helvetica, Arial, sans-serif, 'Apple Color Emoji', 'Segoe UI Emoji', 'Segoe UI Symbol'" x="452.28125" y="513">
					Weighted Average Cost of Capital (WACC)
			</text>
			<text font-size="16" font-weight="600" font-family="'Arial', -apple-system, BlinkMacSystemFont, 'Segoe UI', Roboto, Helvetica, Arial, sans-serif, 'Apple Color Emoji', 'Segoe UI Emoji', 'Segoe UI Symbol'" x="583.09375" y="531">
					Ranges
			</text>
			<clipPath id="cl_6">
				<rect x="442" y="550" width="340" height="230"/>
			</clipPath>
			<g clip-path="url(#cl_6)">
				<path fill="none" stroke="#AAA" stroke-width="1" stroke-miterlimit="4" transform="translate(642 720)" d="M0.5 6L0.5 0.5L70.5 0.5L70.5 6"/>
			</g>
			<g clip-path="url(#cl_6)">
				<path fill="none" stroke="#AAA" stroke-width="1" stroke-miterlimit="4" transform="translate(642.5 720)" d="M0 0L0 6"/>
			</g>
			<g clip-path="url(#cl_6)">
				<text transform="translate(642.5 720)" font-size="12" font-family="'Arial', -apple-system, BlinkMacSystemFont, 'Segoe UI', Roboto, Helvetica, Arial, sans-serif, 'Apple Color Emoji', 'Segoe UI Emoji', 'Segoe UI Symbol'" x="-8.671875" y="17.515625">
						0%
				</text>
			</g>
			<g clip-path="url(#cl_6)">
				<path fill="none" stroke="#AAA" stroke-width="1" stroke-miterlimit="4" transform="translate(654.167 720)" d="M0 0L0 6"/>
			</g>
			<g clip-path="url(#cl_6)">
				<text transform="translate(654.167 720)" font-size="12" font-family="'Arial', -apple-system, BlinkMacSystemFont, 'Segoe UI', Roboto, Helvetica, Arial, sans-serif, 'Apple Color Emoji', 'Segoe UI Emoji', 'Segoe UI Symbol'" x="-8.671875" y="17.515625">
						5%
				</text>
			</g>
			<g clip-path="url(#cl_6)">
				<path fill="none" stroke="#AAA" stroke-width="1" stroke-miterlimit="4" transform="translate(665.833 720)" d="M0 0L0 6"/>
			</g>
			<g clip-path="url(#cl_6)">
				<text transform="translate(665.833 720)" font-size="12" font-family="'Arial', -apple-system, BlinkMacSystemFont, 'Segoe UI', Roboto, Helvetica, Arial, sans-serif, 'Apple Color Emoji', 'Segoe UI Emoji', 'Segoe UI Symbol'" x="-12.015625" y="17.515625">
						10%
				</text>
			</g>
			<g clip-path="url(#cl_6)">
				<path fill="none" stroke="#AAA" stroke-width="1" stroke-miterlimit="4" transform="translate(677.5 720)" d="M0 0L0 6"/>
			</g>
			<g clip-path="url(#cl_6)">
				<text transform="translate(677.5 720)" font-size="12" font-family="'Arial', -apple-system, BlinkMacSystemFont, 'Segoe UI', Roboto, Helvetica, Arial, sans-serif, 'Apple Color Emoji', 'Segoe UI Emoji', 'Segoe UI Symbol'" x="-12.015625" y="17.515625">
						15%
				</text>
			</g>
			<g clip-path="url(#cl_6)">
				<path fill="none" stroke="#AAA" stroke-width="1" stroke-miterlimit="4" transform="translate(689.167 720)" d="M0 0L0 6"/>
			</g>
			<g clip-path="url(#cl_6)">
				<text transform="translate(689.167 720)" font-size="12" font-family="'Arial', -apple-system, BlinkMacSystemFont, 'Segoe UI', Roboto, Helvetica, Arial, sans-serif, 'Apple Color Emoji', 'Segoe UI Emoji', 'Segoe UI Symbol'" x="-12.015625" y="17.515625">
						20%
				</text>
			</g>
			<g clip-path="url(#cl_6)">
				<path fill="none" stroke="#AAA" stroke-width="1" stroke-miterlimit="4" transform="translate(700.833 720)" d="M0 0L0 6"/>
			</g>
			<g clip-path="url(#cl_6)">
				<text transform="translate(700.833 720)" font-size="12" font-family="'Arial', -apple-system, BlinkMacSystemFont, 'Segoe UI', Roboto, Helvetica, Arial, sans-serif, 'Apple Color Emoji', 'Segoe UI Emoji', 'Segoe UI Symbol'" x="-12.015625" y="17.515625">
						25%
				</text>
			</g>
			<g clip-path="url(#cl_6)">
				<path fill="none" stroke="#AAA" stroke-width="1" stroke-miterlimit="4" transform="translate(712.5 720)" d="M0 0L0 6"/>
			</g>
			<g clip-path="url(#cl_6)">
				<text transform="translate(712.5 720)" font-size="12" font-family="'Arial', -apple-system, BlinkMacSystemFont, 'Segoe UI', Roboto, Helvetica, Arial, sans-serif, 'Apple Color Emoji', 'Segoe UI Emoji', 'Segoe UI Symbol'" x="-12.015625" y="17.515625">
						30%
				</text>
			</g>
			<g clip-path="url(#cl_6)">
				<path fill="none" stroke="#AAA" stroke-width="1" stroke-miterlimit="4" transform="translate(642 580)" d="M-6 0.5L0.5 0.5L0.5 140.5L-6 140.5"/>
			</g>
			<g clip-path="url(#cl_6)">
				<path fill="none" stroke="#AAA" stroke-width="1" stroke-miterlimit="4" transform="translate(642 601.163)" d="M0 0L-6 0"/>
			</g>
			<g clip-path="url(#cl_6)">
				<text transform="translate(642 601.163)" font-size="12" font-family="'Arial', -apple-system, BlinkMacSystemFont, 'Segoe UI', Roboto, Helvetica, Arial, sans-serif, 'Apple Color Emoji', 'Segoe UI Emoji', 'Segoe UI Symbol'" x="-127.28125" y="1.8125">
						Traditional VC Equity
				</text>
			</g>
			<g clip-path="url(#cl_6)">
				<path fill="none" stroke="#AAA" stroke-width="1" stroke-miterlimit="4" transform="translate(642 633.721)" d="M0 0L-6 0"/>
			</g>
			<g clip-path="url(#cl_6)">
				<text transform="translate(642 633.721)" font-size="12" font-family="'Arial', -apple-system, BlinkMacSystemFont, 'Segoe UI', Roboto, Helvetica, Arial, sans-serif, 'Apple Color Emoji', 'Segoe UI Emoji', 'Segoe UI Symbol'" x="-85.046875" y="1.8125">
						Green Banks
				</text>
			</g>
			<g clip-path="url(#cl_6)">
				<path fill="none" stroke="#AAA" stroke-width="1" stroke-miterlimit="4" transform="translate(642 666.279)" d="M0 0L-6 0"/>
			</g>
			<g clip-path="url(#cl_6)">
				<text transform="translate(642 666.279)" font-size="12" font-family="'Arial', -apple-system, BlinkMacSystemFont, 'Segoe UI', Roboto, Helvetica, Arial, sans-serif, 'Apple Color Emoji', 'Segoe UI Emoji', 'Segoe UI Symbol'" x="-171.07812" y="1.8125">
						Climate-Focused Debt Funds
				</text>
			</g>
			<g clip-path="url(#cl_6)">
				<path fill="none" stroke="#AAA" stroke-width="1" stroke-miterlimit="4" transform="translate(642 698.837)" d="M0 0L-6 0"/>
			</g>
			<g clip-path="url(#cl_6)">
				<text transform="translate(642 698.837)" font-size="12" font-family="'Arial', -apple-system, BlinkMacSystemFont, 'Segoe UI', Roboto, Helvetica, Arial, sans-serif, 'Apple Color Emoji', 'Segoe UI Emoji', 'Segoe UI Symbol'" x="-127.73438" y="1.8125">
						Equipment Financing
				</text>
			</g>
			<g clip-path="url(#cl_6)">
				<g fill-opacity="0.69803923" transform="translate(640 578)">
					<defs>
						<g id="group_3">
							<path fill="none" stroke="black" stroke-width="1" stroke-miterlimit="4" transform="translate(2 2)" d="M0.5 140L0.5 0.5L70.5 0.5L70.5 140"/>
							<path fill="none" stroke="#E0E0E0" stroke-width="1" stroke-miterlimit="4" stroke-opacity="0.7019608" transform="translate(2.5 2)" d="M0 0L0 140"/>
							<path fill="none" stroke="#E0E0E0" stroke-width="1" stroke-miterlimit="4" stroke-opacity="0.7019608" transform="translate(14.1667 2)" d="M0 0L0 140"/>
							<path fill="none" stroke="#E0E0E0" stroke-width="1" stroke-miterlimit="4" stroke-opacity="0.7019608" transform="translate(25.8333 2)" d="M0 0L0 140"/>
							<path fill="none" stroke="#E0E0E0" stroke-width="1" stroke-miterlimit="4" stroke-opacity="0.7019608" transform="translate(37.5 2)" d="M0 0L0 140"/>
							<path fill="none" stroke="#E0E0E0" stroke-width="1" stroke-miterlimit="4" stroke-opacity="0.7019608" transform="translate(49.1667 2)" d="M0 0L0 140"/>
							<path fill="none" stroke="#E0E0E0" stroke-width="1" stroke-miterlimit="4" stroke-opacity="0.7019608" transform="translate(60.8333 2)" d="M0 0L0 140"/>
							<path fill="none" stroke="#E0E0E0" stroke-width="1" stroke-miterlimit="4" stroke-opacity="0.7019608" transform="translate(72.5 2)" d="M0 0L0 140"/>
						</g>
					</defs>
					<use href="#group_3"/>
				</g>
			</g>
			<g clip-path="url(#cl_6)">
				<path fill="#1F355E" transform="translate(642 580)" d="M46 9.76744L54.3333 9.76744Q54.5298 9.76744 54.7254 9.7867Q54.921 9.80596 55.1137 9.8443Q55.3064 9.88264 55.4945 9.93968Q55.6825 9.99672 55.8641 10.0719Q56.0456 10.1471 56.2189 10.2398Q56.3922 10.3324 56.5556 10.4416Q56.719 10.5507 56.8709 10.6754Q57.0228 10.8001 57.1618 10.939Q57.3007 11.078 57.4254 11.2299Q57.55 11.3818 57.6592 11.5452Q57.7684 11.7085 57.861 11.8819Q57.9537 12.0552 58.0289 12.2367Q58.1041 12.4183 58.1611 12.6063Q58.2181 12.7943 58.2565 12.9871Q58.2948 13.1798 58.3141 13.3754Q58.3333 13.5709 58.3333 13.7674L58.3333 28.5581Q58.3333 28.7546 58.3141 28.9502Q58.2948 29.1458 58.2565 29.3385Q58.2181 29.5312 58.1611 29.7193Q58.1041 29.9073 58.0289 30.0889Q57.9537 30.2704 57.861 30.4437Q57.7684 30.617 57.6592 30.7804Q57.55 30.9438 57.4254 31.0957Q57.3007 31.2476 57.1618 31.3866Q57.0228 31.5255 56.8709 31.6502Q56.719 31.7748 56.5556 31.884Q56.3922 31.9932 56.2189 32.0858Q56.0456 32.1785 55.8641 32.2537Q55.6825 32.3289 55.4945 32.3859Q55.3064 32.4429 55.1137 32.4813Q54.921 32.5196 54.7254 32.5389Q54.5298 32.5581 54.3333 32.5581L46 32.5581Q45.8035 32.5581 45.6079 32.5389Q45.4124 32.5196 45.2196 32.4813Q45.0269 32.4429 44.8389 32.3859Q44.6508 32.3289 44.4693 32.2537Q44.2877 32.1785 44.1144 32.0858Q43.9411 31.9932 43.7777 31.884Q43.6143 31.7748 43.4624 31.6502Q43.3105 31.5255 43.1716 31.3866Q43.0326 31.2476 42.908 31.0957Q42.7833 30.9438 42.6741 30.7804Q42.5649 30.617 42.4723 30.4437Q42.3797 30.2704 42.3045 30.0889Q42.2293 29.9073 42.1722 29.7193Q42.1152 29.5312 42.0769 29.3385Q42.0385 29.1458 42.0193 28.9502Q42 28.7546 42 28.5581L42 13.7674Q42 13.5709 42.0193 13.3754Q42.0385 13.1798 42.0769 12.9871Q42.1152 12.7943 42.1722 12.6063Q42.2293 12.4183 42.3045 12.2367Q42.3797 12.0552 42.4723 11.8819Q42.5649 11.7086 42.6741 11.5452Q42.7833 11.3818 42.908 11.2299Q43.0326 11.078 43.1716 10.939Q43.3105 10.8001 43.4624 10.6754Q43.6143 10.5507 43.7777 10.4416Q43.9411 10.3324 44.1144 10.2398Q44.2877 10.1471 44.4693 10.0719Q44.6508 9.99672 44.8389 9.93968Q45.0269 9.88264 45.2196 9.8443Q45.4124 9.80596 45.6079 9.7867Q45.8035 9.76744 46 9.76744Z"/>
			</g>
			<g clip-path="url(#cl_6)">
				<path fill="#2A7F62" transform="translate(642 580)" d="M15.1667 42.3256L15.1667 42.3256Q15.3386 42.3256 15.5097 42.3448Q15.6808 42.3641 15.8495 42.4024Q16.0181 42.4408 16.1827 42.4978Q16.3472 42.5549 16.5061 42.6301Q16.6649 42.7053 16.8166 42.7979Q16.9682 42.8905 17.1112 42.9997Q17.2541 43.1089 17.387 43.2335Q17.52 43.3582 17.6415 43.4972Q17.7631 43.6361 17.8722 43.788Q17.9813 43.9399 18.0768 44.1033Q18.1723 44.2667 18.2534 44.44Q18.3344 44.6133 18.4002 44.7948Q18.466 44.9764 18.516 45.1644Q18.5659 45.3525 18.5994 45.5452Q18.633 45.738 18.6498 45.9335Q18.6667 46.1291 18.6667 46.3256L18.6667 61.1163Q18.6667 61.3128 18.6498 61.5084Q18.633 61.7039 18.5994 61.8966Q18.5659 62.0894 18.516 62.2774Q18.466 62.4655 18.4002 62.647Q18.3344 62.8286 18.2534 63.0019Q18.1723 63.1752 18.0768 63.3386Q17.9813 63.5019 17.8722 63.6539Q17.7631 63.8058 17.6415 63.9447Q17.52 64.0837 17.387 64.2083Q17.2541 64.333 17.1112 64.4422Q16.9682 64.5513 16.8166 64.644Q16.6649 64.7366 16.5061 64.8118Q16.3472 64.887 16.1827 64.944Q16.0181 65.0011 15.8495 65.0394Q15.6808 65.0778 15.5097 65.097Q15.3386 65.1163 15.1667 65.1163L15.1667 65.1163Q14.9947 65.1163 14.8236 65.097Q14.6525 65.0778 14.4838 65.0394Q14.3152 65.0011 14.1507 64.944Q13.9861 64.887 13.8273 64.8118Q13.6684 64.7366 13.5168 64.644Q13.3651 64.5513 13.2222 64.4422Q13.0792 64.333 12.9463 64.2083Q12.8134 64.0837 12.6918 63.9447Q12.5702 63.8058 12.4611 63.6539Q12.352 63.502 12.2565 63.3386Q12.161 63.1752 12.0799 63.0019Q11.9989 62.8286 11.9331 62.647Q11.8673 62.4655 11.8174 62.2774Q11.7675 62.0894 11.7339 61.8966Q11.7004 61.7039 11.6835 61.5084Q11.6667 61.3128 11.6667 61.1163L11.6667 46.3256Q11.6667 46.1291 11.6835 45.9335Q11.7004 45.738 11.7339 45.5452Q11.7675 45.3525 11.8174 45.1644Q11.8673 44.9764 11.9331 44.7948Q11.9989 44.6133 12.0799 44.44Q12.161 44.2667 12.2565 44.1033Q12.352 43.9399 12.4611 43.788Q12.5702 43.6361 12.6918 43.4972Q12.8134 43.3582 12.9463 43.2335Q13.0792 43.1089 13.2222 42.9997Q13.3651 42.8905 13.5168 42.7979Q13.6684 42.7053 13.8273 42.6301Q13.9861 42.5549 14.1507 42.4978Q14.3152 42.4408 14.4838 42.4024Q14.6525 42.3641 14.8236 42.3448Q14.9947 42.3256 15.1667 42.3256Z"/>
			</g>
			<g clip-path="url(#cl_6)">
				<path fill="#6B5B95" transform="translate(642 580)" d="M22.6667 74.8837L24 74.8837Q24.1965 74.8837 24.3921 74.903Q24.5876 74.9222 24.7804 74.9606Q24.9731 74.9989 25.1611 75.056Q25.3492 75.113 25.5307 75.1882Q25.7123 75.2634 25.8856 75.356Q26.0589 75.4487 26.2223 75.5578Q26.3857 75.667 26.5376 75.7917Q26.6895 75.9163 26.8284 76.0553Q26.9674 76.1942 27.092 76.3461Q27.2167 76.498 27.3259 76.6614Q27.4351 76.8248 27.5277 76.9981Q27.6203 77.1714 27.6955 77.353Q27.7707 77.5345 27.8278 77.7226Q27.8848 77.9106 27.9231 78.1034Q27.9615 78.2961 27.9807 78.4917Q28 78.6872 28 78.8837L28 93.6744Q28 93.8709 27.9807 94.0665Q27.9615 94.262 27.9231 94.4548Q27.8848 94.6475 27.8278 94.8355Q27.7707 95.0236 27.6955 95.2051Q27.6203 95.3867 27.5277 95.56Q27.4351 95.7333 27.3259 95.8967Q27.2167 96.0601 27.092 96.212Q26.9674 96.3639 26.8284 96.5028Q26.6895 96.6418 26.5376 96.7664Q26.3857 96.8911 26.2223 97.0003Q26.0589 97.1095 25.8856 97.2021Q25.7123 97.2947 25.5307 97.3699Q25.3492 97.4451 25.1611 97.5022Q24.9731 97.5592 24.7804 97.5975Q24.5876 97.6359 24.3921 97.6552Q24.1965 97.6744 24 97.6744L22.6667 97.6744Q22.4702 97.6744 22.2746 97.6552Q22.079 97.6359 21.8863 97.5976Q21.6936 97.5592 21.5055 97.5022Q21.3175 97.4451 21.1359 97.3699Q20.9544 97.2947 20.7811 97.2021Q20.6078 97.1095 20.4444 97.0003Q20.281 96.8911 20.1291 96.7665Q19.9772 96.6418 19.8382 96.5028Q19.6993 96.3639 19.5746 96.212Q19.45 96.0601 19.3408 95.8967Q19.2316 95.7333 19.139 95.56Q19.0463 95.3867 18.9711 95.2051Q18.8959 95.0236 18.8389 94.8355Q18.7819 94.6475 18.7435 94.4548Q18.7052 94.262 18.6859 94.0665Q18.6667 93.8709 18.6667 93.6744L18.6667 78.8837Q18.6667 78.6872 18.6859 78.4917Q18.7052 78.2961 18.7435 78.1034Q18.7819 77.9106 18.8389 77.7226Q18.8959 77.5345 18.9711 77.353Q19.0463 77.1714 19.139 76.9981Q19.2316 76.8248 19.3408 76.6614Q19.45 76.498 19.5746 76.3461Q19.6993 76.1942 19.8382 76.0553Q19.9772 75.9163 20.1291 75.7917Q20.281 75.667 20.4444 75.5578Q20.6078 75.4487 20.7811 75.356Q20.9544 75.2634 21.1359 75.1882Q21.3175 75.113 21.5055 75.056Q21.6936 74.9989 21.8863 74.9606Q22.079 74.9222 22.2746 74.903Q22.4702 74.8837 22.6667 74.8837Z"/>
			</g>
			<g clip-path="url(#cl_6)">
				<path fill="#545B64" transform="translate(642 580)" d="M27.3333 107.442L31 107.442Q31.1965 107.442 31.3921 107.461Q31.5876 107.48 31.7804 107.519Q31.9731 107.557 32.1611 107.614Q32.3492 107.671 32.5307 107.746Q32.7123 107.822 32.8856 107.914Q33.0589 108.007 33.2223 108.116Q33.3857 108.225 33.5376 108.35Q33.6895 108.474 33.8284 108.613Q33.9674 108.752 34.092 108.904Q34.2167 109.056 34.3259 109.22Q34.4351 109.383 34.5277 109.556Q34.6203 109.73 34.6955 109.911Q34.7707 110.093 34.8278 110.281Q34.8848 110.469 34.9231 110.661Q34.9615 110.854 34.9807 111.05Q35 111.245 35 111.442L35 126.233Q35 126.429 34.9807 126.625Q34.9615 126.82 34.9231 127.013Q34.8848 127.206 34.8278 127.394Q34.7707 127.582 34.6955 127.763Q34.6203 127.945 34.5277 128.118Q34.4351 128.291 34.3259 128.455Q34.2167 128.618 34.092 128.77Q33.9674 128.922 33.8284 129.061Q33.6895 129.2 33.5376 129.325Q33.3857 129.449 33.2223 129.558Q33.0589 129.668 32.8856 129.76Q32.7123 129.853 32.5307 129.928Q32.3492 130.003 32.1611 130.06Q31.9731 130.117 31.7804 130.156Q31.5876 130.194 31.3921 130.213Q31.1965 130.233 31 130.233L27.3333 130.233Q27.1368 130.233 26.9413 130.213Q26.7457 130.194 26.553 130.156Q26.3602 130.117 26.1722 130.06Q25.9841 130.003 25.8026 129.928Q25.621 129.853 25.4477 129.76Q25.2744 129.668 25.111 129.558Q24.9477 129.449 24.7958 129.325Q24.6439 129.2 24.5049 129.061Q24.366 128.922 24.2413 128.77Q24.1166 128.618 24.0075 128.455Q23.8983 128.291 23.8056 128.118Q23.713 127.945 23.6378 127.763Q23.5626 127.582 23.5056 127.394Q23.4485 127.206 23.4102 127.013Q23.3719 126.82 23.3526 126.625Q23.3333 126.429 23.3333 126.233L23.3333 111.442Q23.3333 111.245 23.3526 111.05Q23.3719 110.854 23.4102 110.662Q23.4485 110.469 23.5056 110.281Q23.5626 110.093 23.6378 109.911Q23.713 109.73 23.8056 109.556Q23.8983 109.383 24.0075 109.22Q24.1166 109.056 24.2413 108.904Q24.366 108.752 24.5049 108.613Q24.6439 108.474 24.7958 108.35Q24.9477 108.225 25.1111 108.116Q25.2744 108.007 25.4477 107.914Q25.621 107.822 25.8026 107.746Q25.9841 107.671 26.1722 107.614Q26.3602 107.557 26.553 107.519Q26.7457 107.48 26.9413 107.461Q27.1368 107.442 27.3333 107.442Z"/>
			</g>
			<g clip-path="url(#cl_6)">
				<text fill="#333" transform="translate(642 580)" font-size="18" font-weight="600" font-family="'Georgia', -apple-system, BlinkMacSystemFont, 'Segoe UI', Roboto, Helvetica, Arial, sans-serif, 'Apple Color Emoji', 'Segoe UI Emoji', 'Segoe UI Symbol'" x="0.171875" y="26.15625">
						18%
				</text>
			</g>
			<g clip-path="url(#cl_6)">
				<text fill="#333" transform="translate(642 580)" font-size="18" font-weight="600" font-family="'Georgia', -apple-system, BlinkMacSystemFont, 'Segoe UI', Roboto, Helvetica, Arial, sans-serif, 'Apple Color Emoji', 'Segoe UI Emoji', 'Segoe UI Symbol'" x="-19.953125" y="58.71875">
						5%
				</text>
			</g>
			<g clip-path="url(#cl_6)">
				<text fill="#333" transform="translate(642 580)" font-size="18" font-weight="600" font-family="'Georgia', -apple-system, BlinkMacSystemFont, 'Segoe UI', Roboto, Helvetica, Arial, sans-serif, 'Apple Color Emoji', 'Segoe UI Emoji', 'Segoe UI Symbol'" x="-14.34375" y="91.265625">
						8%
				</text>
			</g>
			<g clip-path="url(#cl_6)">
				<text fill="#333" transform="translate(642 580)" font-size="18" font-weight="600" font-family="'Georgia', -apple-system, BlinkMacSystemFont, 'Segoe UI', Roboto, Helvetica, Arial, sans-serif, 'Apple Color Emoji', 'Segoe UI Emoji', 'Segoe UI Symbol'" x="-18.921875" y="123.82812">
						10%
				</text>
			</g>
			<g clip-path="url(#cl_6)">
				<text fill="#333" transform="translate(642 580)" font-size="18" font-weight="600" font-family="'Georgia', -apple-system, BlinkMacSystemFont, 'Segoe UI', Roboto, Helvetica, Arial, sans-serif, 'Apple Color Emoji', 'Segoe UI Emoji', 'Segoe UI Symbol'" x="63.328125" y="26.15625">
						25%
				</text>
			</g>
			<g clip-path="url(#cl_6)">
				<text fill="#333" transform="translate(642 580)" font-size="18" font-weight="600" font-family="'Georgia', -apple-system, BlinkMacSystemFont, 'Segoe UI', Roboto, Helvetica, Arial, sans-serif, 'Apple Color Emoji', 'Segoe UI Emoji', 'Segoe UI Symbol'" x="23.65625" y="58.71875">
						8%
				</text>
			</g>
			<g clip-path="url(#cl_6)">
				<text fill="#333" transform="translate(642 580)" font-size="18" font-weight="600" font-family="'Georgia', -apple-system, BlinkMacSystemFont, 'Segoe UI', Roboto, Helvetica, Arial, sans-serif, 'Apple Color Emoji', 'Segoe UI Emoji', 'Segoe UI Symbol'" x="33" y="91.265625">
						12%
				</text>
			</g>
			<g clip-path="url(#cl_6)">
				<text fill="#333" transform="translate(642 580)" font-size="18" font-weight="600" font-family="'Georgia', -apple-system, BlinkMacSystemFont, 'Segoe UI', Roboto, Helvetica, Arial, sans-serif, 'Apple Color Emoji', 'Segoe UI Emoji', 'Segoe UI Symbol'" x="40" y="123.82812">
						15%
				</text>
			</g>
			<g clip-path="url(#cl_6)">
				<text transform="translate(642 580)" font-size="14" font-family="'Arial', -apple-system, BlinkMacSystemFont, 'Segoe UI', Roboto, Helvetica, Arial, sans-serif, 'Apple Color Emoji', 'Segoe UI Emoji', 'Segoe UI Symbol'" x="-12.90625" y="180">
						Interest Rate (%)
				</text>
			</g>
			<path fill="white" fill-opacity="0.80000001" d="M442 786L442 770Q442 769.853 442.014 769.706Q442.029 769.559 442.058 769.415Q442.086 769.27 442.129 769.129Q442.172 768.988 442.228 768.852Q442.285 768.716 442.354 768.586Q442.424 768.456 442.506 768.333Q442.587 768.211 442.681 768.097Q442.774 767.983 442.879 767.879Q442.983 767.774 443.097 767.681Q443.211 767.587 443.333 767.505Q443.456 767.424 443.586 767.354Q443.716 767.285 443.852 767.228Q443.988 767.172 444.129 767.129Q444.27 767.086 444.415 767.058Q444.559 767.029 444.706 767.014Q444.853 767 445 767L762 767Q762.147 767 762.294 767.014Q762.441 767.029 762.585 767.058Q762.73 767.086 762.871 767.129Q763.012 767.172 763.148 767.228Q763.284 767.285 763.414 767.354Q763.544 767.424 763.667 767.505Q763.789 767.587 763.903 767.681Q764.017 767.774 764.121 767.879Q764.226 767.983 764.319 768.097Q764.412 768.211 764.494 768.333Q764.576 768.456 764.646 768.586Q764.715 768.716 764.772 768.852Q764.828 768.988 764.871 769.129Q764.914 769.27 764.942 769.415Q764.971 769.559 764.986 769.706Q765 769.853 765 770L765 786Q765 786.147 764.986 786.294Q764.971 786.441 764.942 786.585Q764.914 786.73 764.871 786.871Q764.828 787.012 764.772 787.148Q764.715 787.284 764.646 787.414Q764.576 787.544 764.494 787.667Q764.413 787.789 764.319 787.903Q764.226 788.017 764.121 788.121Q764.017 788.226 763.903 788.319Q763.789 788.413 763.667 788.494Q763.544 788.576 763.414 788.646Q763.284 788.715 763.148 788.772Q763.012 788.828 762.871 788.871Q762.73 788.914 762.585 788.942Q762.441 788.971 762.294 788.986Q762.147 789 762 789L445 789Q444.853 789 444.706 788.986Q444.559 788.971 444.415 788.942Q444.27 788.914 444.129 788.871Q443.988 788.828 443.852 788.772Q443.716 788.715 443.586 788.646Q443.456 788.576 443.333 788.494Q443.211 788.413 443.097 788.319Q442.983 788.226 442.879 788.121Q442.774 788.017 442.681 787.903Q442.587 787.789 442.506 787.667Q442.424 787.544 442.354 787.414Q442.285 787.284 442.228 787.148Q442.172 787.012 442.129 786.871Q442.086 786.73 442.058 786.585Q442.029 786.441 442.014 786.294Q442 786.147 442 786Z"/>
			<ellipse fill="#666" cx="455" cy="778" rx="8" ry="8"/>
			<text fill="white" font-size="12" font-style="italic" font-weight="600" font-family="'Arial', -apple-system, BlinkMacSystemFont, 'Segoe UI', Roboto, Helvetica, Arial, sans-serif, 'Apple Color Emoji', 'Segoe UI Emoji', 'Segoe UI Symbol'" x="453.32812" y="782">
					i
			</text>
			<text fill="#666" font-size="12" font-style="italic" font-family="'Arial', -apple-system, BlinkMacSystemFont, 'Segoe UI', Roboto, Helvetica, Arial, sans-serif, 'Apple Color Emoji', 'Segoe UI Emoji', 'Segoe UI Symbol'" x="468" y="782">
					Cost of capital optimization crucial for mobility ventures
			</text>
		</g>
	</defs>
	<use href="#group_0"/>
</svg>
