<?xml version="1.0" encoding="utf-8" ?>
<svg xmlns="http://www.w3.org/2000/svg" xmlns:xlink="http://www.w3.org/1999/xlink" width="1200" height="500">
	<defs>
		<g id="group_0">
			<rect fill="white" width="1200" height="520"/>
			<text fill="#1F355E" font-size="24" font-weight="600" font-family="'Verdana', -apple-system, BlinkMacSystemFont, 'Segoe UI', Roboto, Helvetica, Arial, sans-serif, 'Apple Color Emoji', 'Segoe UI Emoji', 'Segoe UI Symbol'" x="182.70312" y="44">
					Leading Autonomous Vehicle Ventures: Case Studies in Mega-
			</text>
			<text fill="#1F355E" font-size="24" font-weight="600" font-family="'Verdana', -apple-system, BlinkMacSystemFont, 'Segoe UI', Roboto, Helvetica, Arial, sans-serif, 'Apple Color Emoji', 'Segoe UI Emoji', 'Segoe UI Symbol'" x="498.4375" y="73">
					Round Funding
			</text>
			<filter id="cfilter_0" x="0%" y="0%" width="100%" height="100%">
				<feFlood flood-color="black" flood-opacity="0.050980393" result="flood"/>
				<feComposite in="flood" operator="atop"/>
			</filter>
			<filter id="cfilter_1">
				<feGaussianBlur stdDeviation="1.5"/>
			</filter>
			<path filter="url(#cfilter_0) url(#cfilter_1)" transform="translate(0 1)" d="M150 462L150 106Q150 105.853 150.014 105.706Q150.029 105.559 150.058 105.415Q150.086 105.27 150.129 105.129Q150.172 104.988 150.228 104.852Q150.285 104.716 150.354 104.586Q150.424 104.456 150.506 104.333Q150.587 104.211 150.681 104.097Q150.774 103.983 150.879 103.879Q150.983 103.774 151.097 103.681Q151.211 103.587 151.333 103.506Q151.456 103.424 151.586 103.354Q151.716 103.285 151.852 103.228Q151.988 103.172 152.129 103.129Q152.27 103.086 152.415 103.058Q152.559 103.029 152.706 103.014Q152.853 103 153 103L433 103Q433.147 103 433.294 103.014Q433.441 103.029 433.585 103.058Q433.73 103.086 433.871 103.129Q434.012 103.172 434.148 103.228Q434.284 103.285 434.414 103.354Q434.544 103.424 434.667 103.506Q434.789 103.587 434.903 103.681Q435.017 103.774 435.121 103.879Q435.226 103.983 435.319 104.097Q435.413 104.211 435.494 104.333Q435.576 104.456 435.646 104.586Q435.715 104.716 435.772 104.852Q435.828 104.988 435.871 105.129Q435.914 105.27 435.942 105.415Q435.971 105.559 435.986 105.706Q436 105.853 436 106L436 462Q436 462.147 435.986 462.294Q435.971 462.441 435.942 462.585Q435.914 462.73 435.871 462.871Q435.828 463.012 435.772 463.148Q435.715 463.284 435.646 463.414Q435.576 463.544 435.494 463.667Q435.413 463.789 435.319 463.903Q435.226 464.017 435.121 464.121Q435.017 464.226 434.903 464.319Q434.789 464.413 434.667 464.494Q434.544 464.576 434.414 464.646Q434.284 464.715 434.148 464.772Q434.012 464.828 433.871 464.871Q433.73 464.914 433.585 464.942Q433.441 464.971 433.294 464.986Q433.147 465 433 465L153 465Q152.853 465 152.706 464.986Q152.559 464.971 152.415 464.942Q152.27 464.914 152.129 464.871Q151.988 464.828 151.852 464.772Q151.716 464.715 151.586 464.646Q151.456 464.576 151.333 464.494Q151.211 464.413 151.097 464.319Q150.983 464.226 150.879 464.121Q150.774 464.017 150.681 463.903Q150.587 463.789 150.506 463.667Q150.424 463.544 150.354 463.414Q150.285 463.284 150.228 463.148Q150.172 463.012 150.129 462.871Q150.086 462.73 150.058 462.585Q150.029 462.441 150.014 462.294Q150 462.147 150 462Z"/>
			<path fill="none" stroke="#EEE" stroke-width="1" stroke-miterlimit="4" d="M150.5 462L150.5 106Q150.5 105.877 150.512 105.755Q150.524 105.633 150.548 105.512Q150.572 105.392 150.608 105.274Q150.643 105.157 150.69 105.043Q150.737 104.93 150.795 104.822Q150.853 104.713 150.921 104.611Q150.99 104.509 151.067 104.414Q151.145 104.319 151.232 104.232Q151.319 104.145 151.414 104.067Q151.509 103.99 151.611 103.921Q151.713 103.853 151.821 103.795Q151.93 103.737 152.043 103.69Q152.157 103.643 152.274 103.608Q152.392 103.572 152.512 103.548Q152.633 103.524 152.755 103.512Q152.877 103.5 153 103.5L433 103.5Q433.123 103.5 433.245 103.512Q433.367 103.524 433.488 103.548Q433.608 103.572 433.726 103.608Q433.843 103.643 433.957 103.69Q434.07 103.737 434.178 103.795Q434.287 103.853 434.389 103.921Q434.491 103.99 434.586 104.067Q434.681 104.145 434.768 104.232Q434.855 104.319 434.932 104.414Q435.01 104.509 435.079 104.611Q435.147 104.713 435.205 104.822Q435.263 104.93 435.31 105.043Q435.357 105.157 435.392 105.274Q435.428 105.392 435.452 105.512Q435.476 105.633 435.488 105.755Q435.5 105.877 435.5 106L435.5 462Q435.5 462.123 435.488 462.245Q435.476 462.367 435.452 462.488Q435.428 462.608 435.392 462.726Q435.357 462.843 435.31 462.957Q435.263 463.07 435.205 463.178Q435.147 463.287 435.079 463.389Q435.01 463.491 434.932 463.586Q434.855 463.681 434.768 463.768Q434.681 463.855 434.586 463.932Q434.491 464.01 434.389 464.079Q434.287 464.147 434.178 464.205Q434.07 464.263 433.957 464.31Q433.843 464.357 433.726 464.392Q433.608 464.428 433.488 464.452Q433.367 464.476 433.245 464.488Q433.123 464.5 433 464.5L153 464.5Q152.877 464.5 152.755 464.488Q152.633 464.476 152.512 464.452Q152.392 464.428 152.274 464.392Q152.157 464.357 152.043 464.31Q151.93 464.263 151.821 464.205Q151.713 464.147 151.611 464.079Q151.509 464.01 151.414 463.932Q151.319 463.855 151.232 463.768Q151.145 463.681 151.067 463.586Q150.99 463.491 150.921 463.389Q150.853 463.287 150.795 463.178Q150.737 463.07 150.69 462.957Q150.643 462.843 150.608 462.726Q150.572 462.608 150.548 462.488Q150.524 462.367 150.512 462.245Q150.5 462.123 150.5 462Z"/>
			<path fill="#2A7F62" fill-opacity="0.14901961" d="M166 277L166 185Q166 184.853 166.014 184.706Q166.029 184.559 166.058 184.415Q166.086 184.27 166.129 184.129Q166.172 183.988 166.228 183.852Q166.285 183.716 166.354 183.586Q166.424 183.456 166.506 183.333Q166.587 183.211 166.681 183.097Q166.774 182.983 166.879 182.879Q166.983 182.774 167.097 182.681Q167.211 182.587 167.333 182.506Q167.456 182.424 167.586 182.354Q167.716 182.285 167.852 182.228Q167.988 182.172 168.129 182.129Q168.27 182.086 168.415 182.058Q168.559 182.029 168.706 182.014Q168.853 182 169 182L417 182Q417.147 182 417.294 182.014Q417.441 182.029 417.585 182.058Q417.73 182.086 417.871 182.129Q418.012 182.172 418.148 182.228Q418.284 182.285 418.414 182.354Q418.544 182.424 418.667 182.506Q418.789 182.587 418.903 182.681Q419.017 182.774 419.121 182.879Q419.226 182.983 419.319 183.097Q419.413 183.211 419.494 183.333Q419.576 183.456 419.646 183.586Q419.715 183.716 419.772 183.852Q419.828 183.988 419.871 184.129Q419.914 184.27 419.942 184.415Q419.971 184.559 419.986 184.706Q420 184.853 420 185L420 277Q420 277.147 419.986 277.294Q419.971 277.441 419.942 277.585Q419.914 277.73 419.871 277.871Q419.828 278.012 419.772 278.148Q419.715 278.284 419.646 278.414Q419.576 278.544 419.494 278.667Q419.413 278.789 419.319 278.903Q419.226 279.017 419.121 279.121Q419.017 279.226 418.903 279.319Q418.789 279.413 418.667 279.494Q418.544 279.576 418.414 279.646Q418.284 279.715 418.148 279.772Q418.012 279.828 417.871 279.871Q417.73 279.914 417.585 279.942Q417.441 279.971 417.294 279.986Q417.147 280 417 280L169 280Q168.853 280 168.706 279.986Q168.559 279.971 168.415 279.942Q168.27 279.914 168.129 279.871Q167.988 279.828 167.852 279.772Q167.716 279.715 167.586 279.646Q167.456 279.576 167.333 279.494Q167.211 279.413 167.097 279.319Q166.983 279.226 166.879 279.121Q166.774 279.017 166.681 278.903Q166.587 278.789 166.506 278.667Q166.424 278.544 166.354 278.414Q166.285 278.284 166.228 278.148Q166.172 278.012 166.129 277.871Q166.086 277.73 166.058 277.585Q166.029 277.441 166.014 277.294Q166 277.147 166 277Z"/>
			<text fill="#1F355E" font-size="21.33" font-weight="600" font-family="'Verdana', -apple-system, BlinkMacSystemFont, 'Segoe UI', Roboto, Helvetica, Arial, sans-serif, 'Apple Color Emoji', 'Segoe UI Emoji', 'Segoe UI Symbol'" x="166" y="140">
					Wayve
			</text>
			<text fill="#555" font-size="14.66" font-family="'Verdana', -apple-system, BlinkMacSystemFont, 'Segoe UI', Roboto, Helvetica, Arial, sans-serif, 'Apple Color Emoji', 'Segoe UI Emoji', 'Segoe UI Symbol'" x="250.92188" y="164">
					London, Founded 2017
			</text>
			<text fill="#2A7F62" font-size="20" font-weight="600" font-family="'Georgia', -apple-system, BlinkMacSystemFont, 'Segoe UI', Roboto, Helvetica, Arial, sans-serif, 'Apple Color Emoji', 'Segoe UI Emoji', 'Segoe UI Symbol'" x="178" y="212">
					$1.05 billion
			</text>
			<text fill="#555" font-size="13.33" font-family="'Verdana', -apple-system, BlinkMacSystemFont, 'Segoe UI', Roboto, Helvetica, Arial, sans-serif, 'Apple Color Emoji', 'Segoe UI Emoji', 'Segoe UI Symbol'" x="178" y="237">
					Series C (May 2024)
			</text>
			<text fill="#555" font-size="13.33" font-family="'Verdana', -apple-system, BlinkMacSystemFont, 'Segoe UI', Roboto, Helvetica, Arial, sans-serif, 'Apple Color Emoji', 'Segoe UI Emoji', 'Segoe UI Symbol'" x="178" y="259">
					Total funding: 
			</text>
			<text fill="#1F355E" font-size="13.33" font-weight="600" font-family="'Georgia', -apple-system, BlinkMacSystemFont, 'Segoe UI', Roboto, Helvetica, Arial, sans-serif, 'Apple Color Emoji', 'Segoe UI Emoji', 'Segoe UI Symbol'" x="275.46875" y="259">
					$1.3 billion
			</text>
			<text fill="#333" font-size="14.66" font-family="'Verdana', -apple-system, BlinkMacSystemFont, 'Segoe UI', Roboto, Helvetica, Arial, sans-serif, 'Apple Color Emoji', 'Segoe UI Emoji', 'Segoe UI Symbol'" x="166" y="312">
					Camera-only deep-learning stack
			</text>
			<text fill="#333" font-size="14.66" font-family="'Verdana', -apple-system, BlinkMacSystemFont, 'Segoe UI', Roboto, Helvetica, Arial, sans-serif, 'Apple Color Emoji', 'Segoe UI Emoji', 'Segoe UI Symbol'" x="166" y="334">
					for Level 4 robotaxis; technology
			</text>
			<text fill="#333" font-size="14.66" font-family="'Verdana', -apple-system, BlinkMacSystemFont, 'Segoe UI', Roboto, Helvetica, Arial, sans-serif, 'Apple Color Emoji', 'Segoe UI Emoji', 'Segoe UI Symbol'" x="166" y="356">
					achieved 
			</text>
			<text fill="#1F355E" font-size="14.66" font-weight="600" font-family="'Georgia', -apple-system, BlinkMacSystemFont, 'Segoe UI', Roboto, Helvetica, Arial, sans-serif, 'Apple Color Emoji', 'Segoe UI Emoji', 'Segoe UI Symbol'" x="236.03125" y="356">
					378%
			</text>
			<text fill="#333" font-size="14.66" font-family="'Verdana', -apple-system, BlinkMacSystemFont, 'Segoe UI', Roboto, Helvetica, Arial, sans-serif, 'Apple Color Emoji', 'Segoe UI Emoji', 'Segoe UI Symbol'" x="276.10938" y="356">
					five-year search
			</text>
			<text fill="#333" font-size="14.66" font-family="'Verdana', -apple-system, BlinkMacSystemFont, 'Segoe UI', Roboto, Helvetica, Arial, sans-serif, 'Apple Color Emoji', 'Segoe UI Emoji', 'Segoe UI Symbol'" x="166" y="379">
					growth
			</text>
			<text fill="#666" font-size="13.33" font-weight="800" font-family="'Font Awesome 6 Free Solid', 'Font Awesome 6 Free', -apple-system, BlinkMacSystemFont, 'Segoe UI', Roboto, Helvetica, Arial, sans-serif, 'Apple Color Emoji', 'Segoe UI Emoji', 'Segoe UI Symbol'" x="166" y="409">
					
			</text>
			<text fill="#666" font-size="13.33" font-style="italic" font-family="'Verdana', -apple-system, BlinkMacSystemFont, 'Segoe UI', Roboto, Helvetica, Arial, sans-serif, 'Apple Color Emoji', 'Segoe UI Emoji', 'Segoe UI Symbol'" x="187" y="409">
					Led by SoftBank Vision Fund 2
			</text>
			<filter id="cfilter_2" x="0%" y="0%" width="100%" height="100%">
				<feFlood flood-color="black" flood-opacity="0.050980393" result="flood"/>
				<feComposite in="flood" operator="atop"/>
			</filter>
			<filter id="cfilter_3">
				<feGaussianBlur stdDeviation="1.5"/>
			</filter>
			<path filter="url(#cfilter_2) url(#cfilter_3)" transform="translate(0 1)" d="M457 462L457 106Q457 105.853 457.014 105.706Q457.029 105.559 457.058 105.415Q457.086 105.27 457.129 105.129Q457.172 104.988 457.228 104.852Q457.285 104.716 457.354 104.586Q457.424 104.456 457.506 104.333Q457.587 104.211 457.681 104.097Q457.774 103.983 457.879 103.879Q457.983 103.774 458.097 103.681Q458.211 103.587 458.333 103.506Q458.456 103.424 458.586 103.354Q458.716 103.285 458.852 103.228Q458.988 103.172 459.129 103.129Q459.27 103.086 459.415 103.058Q459.559 103.029 459.706 103.014Q459.853 103 460 103L740 103Q740.147 103 740.294 103.014Q740.441 103.029 740.585 103.058Q740.73 103.086 740.871 103.129Q741.012 103.172 741.148 103.228Q741.284 103.285 741.414 103.354Q741.544 103.424 741.667 103.506Q741.789 103.587 741.903 103.681Q742.017 103.774 742.121 103.879Q742.226 103.983 742.319 104.097Q742.413 104.211 742.494 104.333Q742.576 104.456 742.646 104.586Q742.715 104.716 742.772 104.852Q742.828 104.988 742.871 105.129Q742.914 105.27 742.942 105.415Q742.971 105.559 742.986 105.706Q743 105.853 743 106L743 462Q743 462.147 742.986 462.294Q742.971 462.441 742.942 462.585Q742.914 462.73 742.871 462.871Q742.828 463.012 742.772 463.148Q742.715 463.284 742.646 463.414Q742.576 463.544 742.494 463.667Q742.413 463.789 742.319 463.903Q742.226 464.017 742.121 464.121Q742.017 464.226 741.903 464.319Q741.789 464.413 741.667 464.494Q741.544 464.576 741.414 464.646Q741.284 464.715 741.148 464.772Q741.012 464.828 740.871 464.871Q740.73 464.914 740.585 464.942Q740.441 464.971 740.294 464.986Q740.147 465 740 465L460 465Q459.853 465 459.706 464.986Q459.559 464.971 459.415 464.942Q459.27 464.914 459.129 464.871Q458.988 464.828 458.852 464.772Q458.716 464.715 458.586 464.646Q458.456 464.576 458.333 464.494Q458.211 464.413 458.097 464.319Q457.983 464.226 457.879 464.121Q457.774 464.017 457.681 463.903Q457.587 463.789 457.506 463.667Q457.424 463.544 457.354 463.414Q457.285 463.284 457.228 463.148Q457.172 463.012 457.129 462.871Q457.086 462.73 457.058 462.585Q457.029 462.441 457.014 462.294Q457 462.147 457 462Z"/>
			<path fill="none" stroke="#EEE" stroke-width="1" stroke-miterlimit="4" d="M457.5 462L457.5 106Q457.5 105.877 457.512 105.755Q457.524 105.633 457.548 105.512Q457.572 105.392 457.608 105.274Q457.643 105.157 457.69 105.043Q457.737 104.93 457.795 104.822Q457.853 104.713 457.921 104.611Q457.99 104.509 458.067 104.414Q458.145 104.319 458.232 104.232Q458.319 104.145 458.414 104.067Q458.509 103.99 458.611 103.921Q458.713 103.853 458.821 103.795Q458.93 103.737 459.043 103.69Q459.157 103.643 459.274 103.608Q459.392 103.572 459.512 103.548Q459.633 103.524 459.755 103.512Q459.877 103.5 460 103.5L740 103.5Q740.123 103.5 740.245 103.512Q740.367 103.524 740.488 103.548Q740.608 103.572 740.726 103.608Q740.843 103.643 740.957 103.69Q741.07 103.737 741.178 103.795Q741.287 103.853 741.389 103.921Q741.491 103.99 741.586 104.067Q741.681 104.145 741.768 104.232Q741.855 104.319 741.933 104.414Q742.01 104.509 742.079 104.611Q742.147 104.713 742.205 104.822Q742.263 104.93 742.31 105.043Q742.357 105.157 742.392 105.274Q742.428 105.392 742.452 105.512Q742.476 105.633 742.488 105.755Q742.5 105.877 742.5 106L742.5 462Q742.5 462.123 742.488 462.245Q742.476 462.367 742.452 462.488Q742.428 462.608 742.392 462.726Q742.357 462.843 742.31 462.957Q742.263 463.07 742.205 463.178Q742.147 463.287 742.079 463.389Q742.01 463.491 741.933 463.586Q741.855 463.681 741.768 463.768Q741.681 463.855 741.586 463.932Q741.491 464.01 741.389 464.079Q741.287 464.147 741.178 464.205Q741.07 464.263 740.957 464.31Q740.843 464.357 740.726 464.392Q740.608 464.428 740.488 464.452Q740.367 464.476 740.245 464.488Q740.123 464.5 740 464.5L460 464.5Q459.877 464.5 459.755 464.488Q459.633 464.476 459.512 464.452Q459.392 464.428 459.274 464.392Q459.157 464.357 459.043 464.31Q458.93 464.263 458.821 464.205Q458.713 464.147 458.611 464.079Q458.509 464.01 458.414 463.932Q458.319 463.855 458.232 463.768Q458.145 463.681 458.067 463.586Q457.99 463.491 457.921 463.389Q457.853 463.287 457.795 463.178Q457.737 463.07 457.69 462.957Q457.643 462.843 457.608 462.726Q457.572 462.608 457.548 462.488Q457.524 462.367 457.512 462.245Q457.5 462.123 457.5 462Z"/>
			<path fill="#2A7F62" fill-opacity="0.14901961" d="M473 309L473 185Q473 184.853 473.014 184.706Q473.029 184.559 473.058 184.415Q473.086 184.27 473.129 184.129Q473.172 183.988 473.228 183.852Q473.285 183.716 473.354 183.586Q473.424 183.456 473.506 183.333Q473.587 183.211 473.681 183.097Q473.774 182.983 473.879 182.879Q473.983 182.774 474.097 182.681Q474.211 182.587 474.333 182.506Q474.456 182.424 474.586 182.354Q474.716 182.285 474.852 182.228Q474.988 182.172 475.129 182.129Q475.27 182.086 475.415 182.058Q475.559 182.029 475.706 182.014Q475.853 182 476 182L724 182Q724.147 182 724.294 182.014Q724.441 182.029 724.585 182.058Q724.73 182.086 724.871 182.129Q725.012 182.172 725.148 182.228Q725.284 182.285 725.414 182.354Q725.544 182.424 725.667 182.506Q725.789 182.587 725.903 182.681Q726.017 182.774 726.121 182.879Q726.225 182.983 726.319 183.097Q726.412 183.211 726.494 183.333Q726.576 183.456 726.646 183.586Q726.715 183.716 726.772 183.852Q726.828 183.988 726.871 184.129Q726.914 184.27 726.942 184.415Q726.971 184.559 726.986 184.706Q727 184.853 727 185L727 309Q727 309.147 726.986 309.294Q726.971 309.441 726.942 309.585Q726.914 309.73 726.871 309.871Q726.828 310.012 726.772 310.148Q726.715 310.284 726.646 310.414Q726.576 310.544 726.494 310.667Q726.412 310.789 726.319 310.903Q726.225 311.017 726.121 311.121Q726.017 311.226 725.903 311.319Q725.789 311.413 725.667 311.494Q725.544 311.576 725.414 311.646Q725.284 311.715 725.148 311.772Q725.012 311.828 724.871 311.871Q724.73 311.914 724.585 311.942Q724.441 311.971 724.294 311.986Q724.147 312 724 312L476 312Q475.853 312 475.706 311.986Q475.559 311.971 475.415 311.942Q475.27 311.914 475.129 311.871Q474.988 311.828 474.852 311.772Q474.716 311.715 474.586 311.646Q474.456 311.576 474.333 311.494Q474.211 311.413 474.097 311.319Q473.983 311.226 473.879 311.121Q473.774 311.017 473.681 310.903Q473.587 310.789 473.506 310.667Q473.424 310.544 473.354 310.414Q473.285 310.284 473.228 310.148Q473.172 310.012 473.129 309.871Q473.086 309.73 473.058 309.585Q473.029 309.441 473.014 309.294Q473 309.147 473 309Z"/>
			<text fill="#1F355E" font-size="21.33" font-weight="600" font-family="'Verdana', -apple-system, BlinkMacSystemFont, 'Segoe UI', Roboto, Helvetica, Arial, sans-serif, 'Apple Color Emoji', 'Segoe UI Emoji', 'Segoe UI Symbol'" x="473.01562" y="140">
					Nuro
			</text>
			<text fill="#555" font-size="14.66" font-family="'Verdana', -apple-system, BlinkMacSystemFont, 'Segoe UI', Roboto, Helvetica, Arial, sans-serif, 'Apple Color Emoji', 'Segoe UI Emoji', 'Segoe UI Symbol'" x="504.48438" y="164">
					Mountain View, Founded 2016
			</text>
			<text fill="#2A7F62" font-size="20" font-weight="600" font-family="'Georgia', -apple-system, BlinkMacSystemFont, 'Segoe UI', Roboto, Helvetica, Arial, sans-serif, 'Apple Color Emoji', 'Segoe UI Emoji', 'Segoe UI Symbol'" x="485.01562" y="212">
					$2.1 billion
			</text>
			<text fill="#555" font-size="13.33" font-family="'Verdana', -apple-system, BlinkMacSystemFont, 'Segoe UI', Roboto, Helvetica, Arial, sans-serif, 'Apple Color Emoji', 'Segoe UI Emoji', 'Segoe UI Symbol'" x="485.01562" y="237">
					Series D (largest AV round of
			</text>
			<text fill="#555" font-size="13.33" font-family="'Verdana', -apple-system, BlinkMacSystemFont, 'Segoe UI', Roboto, Helvetica, Arial, sans-serif, 'Apple Color Emoji', 'Segoe UI Emoji', 'Segoe UI Symbol'" x="485.01562" y="253">
					2024)
			</text>
			<text fill="#555" font-size="13.33" font-family="'Verdana', -apple-system, BlinkMacSystemFont, 'Segoe UI', Roboto, Helvetica, Arial, sans-serif, 'Apple Color Emoji', 'Segoe UI Emoji', 'Segoe UI Symbol'" x="485.01562" y="275">
					Post-money valuation: 
			</text>
			<text fill="#1F355E" font-size="13.33" font-weight="600" font-family="'Georgia', -apple-system, BlinkMacSystemFont, 'Segoe UI', Roboto, Helvetica, Arial, sans-serif, 'Apple Color Emoji', 'Segoe UI Emoji', 'Segoe UI Symbol'" x="640.71875" y="275">
					&gt;$10
			</text>
			<text fill="#1F355E" font-size="13.33" font-weight="600" font-family="'Georgia', -apple-system, BlinkMacSystemFont, 'Segoe UI', Roboto, Helvetica, Arial, sans-serif, 'Apple Color Emoji', 'Segoe UI Emoji', 'Segoe UI Symbol'" x="485.01562" y="291">
					billion
			</text>
			<text fill="#333" font-size="14.66" font-family="'Verdana', -apple-system, BlinkMacSystemFont, 'Segoe UI', Roboto, Helvetica, Arial, sans-serif, 'Apple Color Emoji', 'Segoe UI Emoji', 'Segoe UI Symbol'" x="473.01562" y="344">
					Electric delivery vehicles currently
			</text>
			<text fill="#333" font-size="14.66" font-family="'Verdana', -apple-system, BlinkMacSystemFont, 'Segoe UI', Roboto, Helvetica, Arial, sans-serif, 'Apple Color Emoji', 'Segoe UI Emoji', 'Segoe UI Symbol'" x="473.01562" y="366">
					in service with Domino&apos;s,
			</text>
			<text fill="#333" font-size="14.66" font-family="'Verdana', -apple-system, BlinkMacSystemFont, 'Segoe UI', Roboto, Helvetica, Arial, sans-serif, 'Apple Color Emoji', 'Segoe UI Emoji', 'Segoe UI Symbol'" x="473.01562" y="388">
					Chipotle, Kroger and Walmart;
			</text>
			<text fill="#333" font-size="14.66" font-family="'Verdana', -apple-system, BlinkMacSystemFont, 'Segoe UI', Roboto, Helvetica, Arial, sans-serif, 'Apple Color Emoji', 'Segoe UI Emoji', 'Segoe UI Symbol'" x="473.01562" y="410">
					holds California&apos;s first AV
			</text>
			<text fill="#333" font-size="14.66" font-family="'Verdana', -apple-system, BlinkMacSystemFont, 'Segoe UI', Roboto, Helvetica, Arial, sans-serif, 'Apple Color Emoji', 'Segoe UI Emoji', 'Segoe UI Symbol'" x="473.01562" y="432">
					deployment permit
			</text>
			<filter id="cfilter_4" x="0%" y="0%" width="100%" height="100%">
				<feFlood flood-color="black" flood-opacity="0.050980393" result="flood"/>
				<feComposite in="flood" operator="atop"/>
			</filter>
			<filter id="cfilter_5">
				<feGaussianBlur stdDeviation="1.5"/>
			</filter>
			<path filter="url(#cfilter_4) url(#cfilter_5)" transform="translate(0 1)" d="M764 462L764 106Q764 105.853 764.014 105.706Q764.029 105.559 764.058 105.415Q764.086 105.27 764.129 105.129Q764.172 104.988 764.228 104.852Q764.285 104.716 764.354 104.586Q764.424 104.456 764.505 104.333Q764.587 104.211 764.681 104.097Q764.774 103.983 764.879 103.879Q764.983 103.774 765.097 103.681Q765.211 103.587 765.333 103.506Q765.456 103.424 765.586 103.354Q765.716 103.285 765.852 103.228Q765.988 103.172 766.129 103.129Q766.27 103.086 766.415 103.058Q766.559 103.029 766.706 103.014Q766.853 103 767 103L1047 103Q1047.15 103 1047.29 103.014Q1047.44 103.029 1047.59 103.058Q1047.73 103.086 1047.87 103.129Q1048.01 103.172 1048.15 103.228Q1048.28 103.285 1048.41 103.354Q1048.54 103.424 1048.67 103.506Q1048.79 103.587 1048.9 103.681Q1049.02 103.774 1049.12 103.879Q1049.23 103.983 1049.32 104.097Q1049.41 104.211 1049.49 104.333Q1049.58 104.456 1049.65 104.586Q1049.72 104.716 1049.77 104.852Q1049.83 104.988 1049.87 105.129Q1049.91 105.27 1049.94 105.415Q1049.97 105.559 1049.99 105.706Q1050 105.853 1050 106L1050 462Q1050 462.147 1049.99 462.294Q1049.97 462.441 1049.94 462.585Q1049.91 462.73 1049.87 462.871Q1049.83 463.012 1049.77 463.148Q1049.72 463.284 1049.65 463.414Q1049.58 463.544 1049.49 463.667Q1049.41 463.789 1049.32 463.903Q1049.23 464.017 1049.12 464.121Q1049.02 464.226 1048.9 464.319Q1048.79 464.413 1048.67 464.494Q1048.54 464.576 1048.41 464.646Q1048.28 464.715 1048.15 464.772Q1048.01 464.828 1047.87 464.871Q1047.73 464.914 1047.59 464.942Q1047.44 464.971 1047.29 464.986Q1047.15 465 1047 465L767 465Q766.853 465 766.706 464.986Q766.559 464.971 766.415 464.942Q766.27 464.914 766.129 464.871Q765.988 464.828 765.852 464.772Q765.716 464.715 765.586 464.646Q765.456 464.576 765.333 464.494Q765.211 464.413 765.097 464.319Q764.983 464.226 764.879 464.121Q764.774 464.017 764.681 463.903Q764.587 463.789 764.505 463.667Q764.424 463.544 764.354 463.414Q764.285 463.284 764.228 463.148Q764.172 463.012 764.129 462.871Q764.086 462.73 764.058 462.585Q764.029 462.441 764.014 462.294Q764 462.147 764 462Z"/>
			<path fill="none" stroke="#EEE" stroke-width="1" stroke-miterlimit="4" d="M764.5 462L764.5 106Q764.5 105.877 764.512 105.755Q764.524 105.633 764.548 105.512Q764.572 105.392 764.608 105.274Q764.643 105.157 764.69 105.043Q764.737 104.93 764.795 104.822Q764.853 104.713 764.921 104.611Q764.99 104.509 765.067 104.414Q765.145 104.319 765.232 104.232Q765.319 104.145 765.414 104.067Q765.509 103.99 765.611 103.921Q765.713 103.853 765.821 103.795Q765.93 103.737 766.043 103.69Q766.157 103.643 766.274 103.608Q766.392 103.572 766.512 103.548Q766.633 103.524 766.755 103.512Q766.877 103.5 767 103.5L1047 103.5Q1047.12 103.5 1047.25 103.512Q1047.37 103.524 1047.49 103.548Q1047.61 103.572 1047.73 103.608Q1047.84 103.643 1047.96 103.69Q1048.07 103.737 1048.18 103.795Q1048.29 103.853 1048.39 103.921Q1048.49 103.99 1048.59 104.067Q1048.68 104.145 1048.77 104.232Q1048.85 104.319 1048.93 104.414Q1049.01 104.509 1049.08 104.611Q1049.15 104.713 1049.2 104.822Q1049.26 104.93 1049.31 105.043Q1049.36 105.157 1049.39 105.274Q1049.43 105.392 1049.45 105.512Q1049.48 105.633 1049.49 105.755Q1049.5 105.877 1049.5 106L1049.5 462Q1049.5 462.123 1049.49 462.245Q1049.48 462.367 1049.45 462.488Q1049.43 462.608 1049.39 462.726Q1049.36 462.843 1049.31 462.957Q1049.26 463.07 1049.2 463.178Q1049.15 463.287 1049.08 463.389Q1049.01 463.491 1048.93 463.586Q1048.85 463.681 1048.77 463.768Q1048.68 463.855 1048.59 463.932Q1048.49 464.01 1048.39 464.079Q1048.29 464.147 1048.18 464.205Q1048.07 464.263 1047.96 464.31Q1047.84 464.357 1047.73 464.392Q1047.61 464.428 1047.49 464.452Q1047.37 464.476 1047.25 464.488Q1047.12 464.5 1047 464.5L767 464.5Q766.877 464.5 766.755 464.488Q766.633 464.476 766.512 464.452Q766.392 464.428 766.274 464.392Q766.157 464.357 766.043 464.31Q765.93 464.263 765.821 464.205Q765.713 464.147 765.611 464.079Q765.509 464.01 765.414 463.932Q765.319 463.855 765.232 463.768Q765.145 463.681 765.067 463.586Q764.99 463.491 764.921 463.389Q764.853 463.287 764.795 463.178Q764.737 463.07 764.69 462.957Q764.643 462.843 764.608 462.726Q764.572 462.608 764.548 462.488Q764.524 462.367 764.512 462.245Q764.5 462.123 764.5 462Z"/>
			<path fill="#2A7F62" fill-opacity="0.14901961" d="M780 271L780 185Q780 184.853 780.014 184.706Q780.029 184.559 780.058 184.415Q780.086 184.27 780.129 184.129Q780.172 183.988 780.228 183.852Q780.285 183.716 780.354 183.586Q780.424 183.456 780.505 183.333Q780.587 183.211 780.681 183.097Q780.774 182.983 780.879 182.879Q780.983 182.774 781.097 182.681Q781.211 182.587 781.333 182.506Q781.456 182.424 781.586 182.354Q781.716 182.285 781.852 182.228Q781.988 182.172 782.129 182.129Q782.27 182.086 782.415 182.058Q782.559 182.029 782.706 182.014Q782.853 182 783 182L1031 182Q1031.15 182 1031.29 182.014Q1031.44 182.029 1031.59 182.058Q1031.73 182.086 1031.87 182.129Q1032.01 182.172 1032.15 182.228Q1032.28 182.285 1032.41 182.354Q1032.54 182.424 1032.67 182.506Q1032.79 182.587 1032.9 182.681Q1033.02 182.774 1033.12 182.879Q1033.23 182.983 1033.32 183.097Q1033.41 183.211 1033.49 183.333Q1033.58 183.456 1033.65 183.586Q1033.72 183.716 1033.77 183.852Q1033.83 183.988 1033.87 184.129Q1033.91 184.27 1033.94 184.415Q1033.97 184.559 1033.99 184.706Q1034 184.853 1034 185L1034 271Q1034 271.147 1033.99 271.294Q1033.97 271.441 1033.94 271.585Q1033.91 271.73 1033.87 271.871Q1033.83 272.012 1033.77 272.148Q1033.72 272.284 1033.65 272.414Q1033.58 272.544 1033.49 272.667Q1033.41 272.789 1033.32 272.903Q1033.23 273.017 1033.12 273.121Q1033.02 273.226 1032.9 273.319Q1032.79 273.413 1032.67 273.494Q1032.54 273.576 1032.41 273.646Q1032.28 273.715 1032.15 273.772Q1032.01 273.828 1031.87 273.871Q1031.73 273.914 1031.59 273.942Q1031.44 273.971 1031.29 273.986Q1031.15 274 1031 274L783 274Q782.853 274 782.706 273.986Q782.559 273.971 782.415 273.942Q782.27 273.914 782.129 273.871Q781.988 273.828 781.852 273.772Q781.716 273.715 781.586 273.646Q781.456 273.576 781.333 273.494Q781.211 273.413 781.097 273.319Q780.983 273.226 780.879 273.121Q780.774 273.017 780.681 272.903Q780.587 272.789 780.505 272.667Q780.424 272.544 780.354 272.414Q780.285 272.284 780.228 272.148Q780.172 272.012 780.129 271.871Q780.086 271.73 780.058 271.585Q780.029 271.441 780.014 271.294Q780 271.147 780 271Z"/>
			<text fill="#1F355E" font-size="21.33" font-weight="600" font-family="'Verdana', -apple-system, BlinkMacSystemFont, 'Segoe UI', Roboto, Helvetica, Arial, sans-serif, 'Apple Color Emoji', 'Segoe UI Emoji', 'Segoe UI Symbol'" x="780.03125" y="140">
					Momenta
			</text>
			<text fill="#555" font-size="14.66" font-family="'Verdana', -apple-system, BlinkMacSystemFont, 'Segoe UI', Roboto, Helvetica, Arial, sans-serif, 'Apple Color Emoji', 'Segoe UI Emoji', 'Segoe UI Symbol'" x="868.3125" y="164">
					Beijing, Founded 2016
			</text>
			<text fill="#2A7F62" font-size="20" font-weight="600" font-family="'Georgia', -apple-system, BlinkMacSystemFont, 'Segoe UI', Roboto, Helvetica, Arial, sans-serif, 'Apple Color Emoji', 'Segoe UI Emoji', 'Segoe UI Symbol'" x="792.03125" y="212">
					$1.2 billion
			</text>
			<text fill="#555" font-size="13.33" font-family="'Verdana', -apple-system, BlinkMacSystemFont, 'Segoe UI', Roboto, Helvetica, Arial, sans-serif, 'Apple Color Emoji', 'Segoe UI Emoji', 'Segoe UI Symbol'" x="792.03125" y="237">
					Series C (one of 2024&apos;s top five
			</text>
			<text fill="#555" font-size="13.33" font-family="'Verdana', -apple-system, BlinkMacSystemFont, 'Segoe UI', Roboto, Helvetica, Arial, sans-serif, 'Apple Color Emoji', 'Segoe UI Emoji', 'Segoe UI Symbol'" x="792.03125" y="253">
					AV financings)
			</text>
			<text fill="#333" font-size="14.66" font-family="'Verdana', -apple-system, BlinkMacSystemFont, 'Segoe UI', Roboto, Helvetica, Arial, sans-serif, 'Apple Color Emoji', 'Segoe UI Emoji', 'Segoe UI Symbol'" x="780.03125" y="306">
					Blends large-scale machine
			</text>
			<text fill="#333" font-size="14.66" font-family="'Verdana', -apple-system, BlinkMacSystemFont, 'Segoe UI', Roboto, Helvetica, Arial, sans-serif, 'Apple Color Emoji', 'Segoe UI Emoji', 'Segoe UI Symbol'" x="780.03125" y="328">
					learning with HD-map
			</text>
			<text fill="#333" font-size="14.66" font-family="'Verdana', -apple-system, BlinkMacSystemFont, 'Segoe UI', Roboto, Helvetica, Arial, sans-serif, 'Apple Color Emoji', 'Segoe UI Emoji', 'Segoe UI Symbol'" x="780.03125" y="350">
					reconstruction; aims to eliminate
			</text>
			<text fill="#1F355E" font-size="14.66" font-weight="600" font-family="'Georgia', -apple-system, BlinkMacSystemFont, 'Segoe UI', Roboto, Helvetica, Arial, sans-serif, 'Apple Color Emoji', 'Segoe UI Emoji', 'Segoe UI Symbol'" x="780.03125" y="372">
					one million
			</text>
			<text fill="#333" font-size="14.66" font-family="'Verdana', -apple-system, BlinkMacSystemFont, 'Segoe UI', Roboto, Helvetica, Arial, sans-serif, 'Apple Color Emoji', 'Segoe UI Emoji', 'Segoe UI Symbol'" x="866.34375" y="372">
					traffic fatalities by
			</text>
			<text fill="#333" font-size="14.66" font-family="'Verdana', -apple-system, BlinkMacSystemFont, 'Segoe UI', Roboto, Helvetica, Arial, sans-serif, 'Apple Color Emoji', 'Segoe UI Emoji', 'Segoe UI Symbol'" x="780.03125" y="395">
					2033
			</text>
			<text fill="#999" font-size="12" font-family="'Verdana', -apple-system, BlinkMacSystemFont, 'Segoe UI', Roboto, Helvetica, Arial, sans-serif, 'Apple Color Emoji', 'Segoe UI Emoji', 'Segoe UI Symbol'" x="700.5" y="497">
					Source: Company press releases and public filings (2024)
			</text>
		</g>
	</defs>
	<use href="#group_0"/>
</svg>
